<svg width="18" height="13" viewBox="0 0 18 13" fill="none" xmlns="http://www.w3.org/2000/svg">
<g opacity="0.65">
<path d="M17.3424 0.871387L12.0818 6.09812L17.3424 11.3249C17.4375 11.1261 17.4952 10.9064 17.4952 10.6717V1.52453C17.4952 1.28985 17.4375 1.07015 17.3424 0.871387ZM15.9706 0H1.67394C1.43927 0 1.21957 0.0576951 1.0208 0.152792L7.74442 6.84253C8.33892 7.43703 9.30567 7.43703 9.90017 6.84253L16.6238 0.152792C16.425 0.0576951 16.2053 0 15.9706 0ZM0.302206 0.871387C0.207109 1.07015 0.149414 1.28985 0.149414 1.52453V10.6717C0.149414 10.9064 0.207109 11.1261 0.302206 11.3249L5.56282 6.09812L0.302206 0.871387Z" fill="white"/>
<path d="M11.3629 6.81689L10.6185 7.56131C9.6279 8.55188 8.01607 8.55188 7.0255 7.56131L6.28112 6.81689L1.02051 12.0436C1.21927 12.1387 1.43897 12.1964 1.67365 12.1964H15.9704C16.205 12.1964 16.4247 12.1387 16.6235 12.0436L11.3629 6.81689Z" fill="white"/>
</g>
</svg>
