<svg width="22" height="22" viewBox="0 0 22 22" fill="none" xmlns="http://www.w3.org/2000/svg">
<path d="M1.14269 1.12665C-0.380896 2.6395 -0.380896 7.56432 1.14269 9.04499C2.28634 9.88046 3.68915 10.2834 5.10186 10.1823C6.51456 10.2834 7.91737 9.88046 9.06103 9.04499C10.5846 7.53213 10.5846 2.60732 9.06103 1.12665C7.53744 -0.354014 2.65554 -0.396932 1.14269 1.12665ZM1.14269 12.9291C-0.380896 14.4419 -0.380896 19.3667 1.14269 20.8474C2.28634 21.6829 3.68915 22.0858 5.10186 21.9847C6.51456 22.0858 7.91737 21.6829 9.06103 20.8474C10.5846 19.3345 10.5846 14.4097 9.06103 12.9291C7.53744 11.4484 2.65554 11.4055 1.14269 12.9291ZM16.9043 10.1823C18.317 10.2834 19.7198 9.88046 20.8634 9.04499C22.387 7.53213 22.387 2.60732 20.8634 1.12665C19.3398 -0.354014 14.4258 -0.396932 12.9451 1.12665C11.4644 2.65023 11.4215 7.56432 12.9451 9.04499C14.0887 9.88046 15.4916 10.2834 16.9043 10.1823ZM12.9451 12.9291C11.4215 14.4419 11.4215 19.3667 12.9451 20.8474C14.0887 21.6829 15.4916 22.0858 16.9043 21.9847C18.317 22.0858 19.7198 21.6829 20.8634 20.8474C22.387 19.3345 22.387 14.4097 20.8634 12.9291C19.3398 11.4484 14.4579 11.4055 12.9451 12.9291Z" fill="#A96D2B"/>
</svg>
