<svg width="13" height="23" viewBox="0 0 13 23" fill="none" xmlns="http://www.w3.org/2000/svg">
<path d="M4.16785 12.9677C4.08263 12.9677 2.20764 12.9677 1.35538 12.9677C0.900833 12.9677 0.758789 12.7972 0.758789 12.3711C0.758789 11.2347 0.758789 10.07 0.758789 8.93361C0.758789 8.47907 0.929242 8.33703 1.35538 8.33703H4.16785C4.16785 8.2518 4.16785 6.60409 4.16785 5.83705C4.16785 4.70069 4.36671 3.62116 4.93489 2.62684C5.53148 1.60413 6.38374 0.922313 7.46328 0.524589C8.1735 0.268909 8.88372 0.155273 9.65076 0.155273H12.4348C12.8326 0.155273 13.003 0.325727 13.003 0.723451V3.96206C13.003 4.35979 12.8326 4.53024 12.4348 4.53024C11.6678 4.53024 10.9008 4.53024 10.1337 4.55865C9.36667 4.55865 8.96895 4.92796 8.96895 5.72341C8.94054 6.57568 8.96895 7.39954 8.96895 8.28021H12.2644C12.7189 8.28021 12.8894 8.45066 12.8894 8.90521V12.3427C12.8894 12.7972 12.7473 12.9393 12.2644 12.9393C11.2417 12.9393 9.05418 12.9393 8.96895 12.9393V22.2006C8.96895 22.6835 8.82691 22.854 8.31555 22.854C7.12238 22.854 5.95761 22.854 4.76444 22.854C4.33831 22.854 4.16785 22.6835 4.16785 22.2574C4.16785 19.2744 4.16785 13.0529 4.16785 12.9677Z" fill="#A96D2B"/>
</svg>
