<svg width="24" height="22" viewBox="0 0 24 22" fill="none" xmlns="http://www.w3.org/2000/svg">
<path d="M0.493916 12.9462H1.4836V21.3585C1.4836 21.6356 1.70627 21.8534 1.97844 21.8534H8.41135V15.4204C8.41135 15.1483 8.63403 14.9256 8.90619 14.9256H14.8443C15.1164 14.9256 15.3391 15.1483 15.3391 15.4204V21.8534H21.772C22.0442 21.8534 22.2669 21.6356 22.2669 21.3585V12.9462H23.2565C23.4891 12.9462 23.6871 12.7879 23.7365 12.5652C23.7635 12.4568 23.7522 12.3423 23.7044 12.2413C23.6566 12.1403 23.5753 12.0589 23.4743 12.011C21.9106 11.2489 20.6388 9.75453 20.2875 9.31412V7.00817H22.2669C22.3944 7.00388 22.5154 6.95052 22.6046 6.85921C22.6938 6.76791 22.7443 6.64569 22.7456 6.51807C22.7468 6.39044 22.6988 6.26724 22.6115 6.17417C22.5241 6.08109 22.4042 6.02532 22.2768 6.01849C15.6855 5.90962 12.6323 0.812774 12.3057 0.233812C12.1325 -0.0779373 11.6179 -0.0779373 11.4447 0.233812C11.1181 0.812774 8.06496 5.90962 1.4737 6.01849C1.34625 6.02532 1.22635 6.08109 1.13901 6.17417C1.05167 6.26724 1.00364 6.39044 1.00491 6.51807C1.00619 6.64569 1.05668 6.76791 1.14586 6.85921C1.23505 6.95052 1.35603 7.00388 1.4836 7.00817H3.46295V9.31412C3.11162 9.74958 1.83988 11.2489 0.276187 12.011C0.0683539 12.11 -0.0405107 12.3376 0.0139216 12.5652C0.0634056 12.7879 0.261341 12.9462 0.493916 12.9462ZM6.92683 17.8946C6.92683 18.1718 6.70416 18.3895 6.43199 18.3895H4.45263C4.18047 18.3895 3.95779 18.1718 3.95779 17.8946V14.9256C3.95779 14.6534 4.18047 14.4308 4.45263 14.4308H6.43199C6.70416 14.4308 6.92683 14.6534 6.92683 14.9256V17.8946ZM19.7927 17.8946C19.7927 18.1718 19.57 18.3895 19.2978 18.3895H17.3185C17.0463 18.3895 16.8236 18.1718 16.8236 17.8946V14.9256C16.8236 14.6534 17.0463 14.4308 17.3185 14.4308H19.2978C19.57 14.4308 19.7927 14.6534 19.7927 14.9256V17.8946Z" fill="#A96D2B"/>
</svg>
