<svg width="19" height="21" viewBox="0 0 19 21" fill="none" xmlns="http://www.w3.org/2000/svg">
<path d="M19 15.1292V1.75888C18.9994 1.57242 18.9251 1.39375 18.7933 1.2619C18.6614 1.13005 18.4828 1.05573 18.2963 1.05518H0.703704C0.517241 1.05573 0.338575 1.13005 0.206725 1.2619C0.0748757 1.39375 0.000556885 1.57242 0 1.75888V15.1292L0.703704 15.4811H18.2963L19 15.1292Z" fill="#7C7ED0"/>
<path d="M13.3706 19.0003C13.3706 19.0003 11.6114 19.0003 11.6114 17.241L9.50025 16.8892L7.38914 17.241C7.38914 19.0003 5.62988 19.0003 5.62988 19.0003L9.50025 19.3521L13.3706 19.0003Z" fill="#9EBBCE"/>
<path d="M19 15.1294V16.5368C18.9994 16.7233 18.9251 16.9019 18.7933 17.0338C18.6614 17.1656 18.4828 17.2399 18.2963 17.2405H0.703704C0.517241 17.2399 0.338575 17.1656 0.206725 17.0338C0.0748757 16.9019 0.000556885 16.7233 0 16.5368V15.1294H19Z" fill="#BFDBF0"/>
<path d="M7.03686 2.46289H1.75908C1.66576 2.46289 1.57627 2.49996 1.51028 2.56595C1.4443 2.63193 1.40723 2.72143 1.40723 2.81474V13.3703C1.40723 13.4636 1.4443 13.5531 1.51028 13.6191C1.57627 13.6851 1.66576 13.7221 1.75908 13.7221H17.2406C17.3339 13.7221 17.4234 13.6851 17.4894 13.6191C17.5553 13.5531 17.5924 13.4636 17.5924 13.3703V2.81474C17.5924 2.72143 17.5553 2.63193 17.4894 2.56595C17.4234 2.49996 17.3339 2.46289 17.2406 2.46289H7.03686Z" fill="#9693EB"/>
<path d="M5.62977 19H13.3705C13.6505 19 13.919 19.1112 14.1169 19.3092C14.3149 19.5071 14.4261 19.7756 14.4261 20.0556C14.4261 20.1489 14.389 20.2384 14.323 20.3044C14.257 20.3703 14.1675 20.4074 14.0742 20.4074H4.92607C4.83275 20.4074 4.74326 20.3703 4.67727 20.3044C4.61129 20.2384 4.57422 20.1489 4.57422 20.0556C4.57422 19.7756 4.68543 19.5071 4.88338 19.3092C5.08134 19.1112 5.34982 19 5.62977 19Z" fill="#BFDBF0"/>
<path d="M14.426 0H4.57411C3.99114 0 3.51855 0.472588 3.51855 1.05556V10.9074C3.51855 11.4904 3.99114 11.963 4.57411 11.963H14.426C15.0089 11.963 15.4815 11.4904 15.4815 10.9074V1.05556C15.4815 0.472588 15.0089 0 14.426 0Z" fill="#E1EFFF"/>
<path d="M7.64902 4.44577C6.99057 4.09798 6.26967 3.88426 5.52805 3.81701C5.4491 3.80947 5.36993 3.82901 5.30355 3.87243C5.23718 3.91585 5.18755 3.98056 5.16283 4.05592C4.95629 4.68926 4.56081 6.39046 5.63291 7.91926C6.95235 9.79814 9.37661 9.85163 9.49272 9.85163H9.49624L9.49976 9.84811H9.49272L9.49624 9.85163H9.49976C9.61587 9.85163 12.0401 9.79814 13.3596 7.91926C14.4317 6.39046 14.0362 4.68855 13.8296 4.05592C13.8049 3.98056 13.7553 3.91585 13.6889 3.87243C13.6226 3.82901 13.5434 3.80947 13.4644 3.81701C12.7228 3.88426 12.0019 4.09798 11.3435 4.44577H7.64902Z" fill="#EC53AA"/>
<path d="M11.6109 5.93743C11.6109 8.42854 9.49978 9.85213 9.49978 9.85213C9.49978 9.85213 7.38867 8.42854 7.38867 5.93743C7.38867 3.94383 8.74084 2.63389 9.28093 2.1902C9.34247 2.13922 9.41987 2.11133 9.49978 2.11133C9.57969 2.11133 9.6571 2.13922 9.71863 2.1902C10.2587 2.63389 11.6109 3.94383 11.6109 5.93743Z" fill="#E06DCF"/>
</svg>
