<svg width="58" height="80" viewBox="0 0 58 80" fill="none" xmlns="http://www.w3.org/2000/svg">
<path d="M13.1941 74.8388H5.45215C5.97548 74.901 6.50612 74.8437 7.0041 74.6712C7.50209 74.4987 7.95444 74.2154 8.3271 73.8428C8.69976 73.4701 8.98302 73.0177 9.15554 72.5198C9.32807 72.0218 9.38536 71.4911 9.32312 70.9678C9.26087 71.4911 9.31816 72.0218 9.49069 72.5198C9.66321 73.0177 9.94647 73.4701 10.3191 73.8428C10.6918 74.2154 11.1441 74.4987 11.6421 74.6712C12.1401 74.8437 12.6708 74.901 13.1941 74.8388ZM20.936 74.8388H13.1941C13.7174 74.901 14.2481 74.8437 14.746 74.6712C15.244 74.4987 15.6964 74.2154 16.069 73.8428C16.4417 73.4701 16.725 73.0177 16.8975 72.5198C17.07 72.0218 17.1273 71.4911 17.0651 70.9678C17.0028 71.4911 17.0601 72.0218 17.2326 72.5198C17.4051 73.0177 17.6884 73.4701 18.0611 73.8428C18.4337 74.2154 18.8861 74.4987 19.3841 74.6712C19.882 74.8437 20.4127 74.901 20.936 74.8388ZM28.678 74.8388H20.936C21.4594 74.901 21.99 74.8437 22.488 74.6712C22.986 74.4987 23.4383 74.2154 23.811 73.8428C24.1836 73.4701 24.4669 73.0177 24.6394 72.5198C24.8119 72.0218 24.8692 71.4911 24.807 70.9678C24.7447 71.4911 24.802 72.0218 24.9746 72.5198C25.1471 73.0177 25.4303 73.4701 25.803 73.8428C26.1757 74.2154 26.628 74.4987 27.126 74.6712C27.624 74.8437 28.1546 74.901 28.678 74.8388ZM36.4199 74.8388H28.678C29.2013 74.901 29.7319 74.8437 30.2299 74.6712C30.7279 74.4987 31.1802 74.2154 31.5529 73.8428C31.9256 73.4701 32.2088 73.0177 32.3813 72.5198C32.5539 72.0218 32.6112 71.4911 32.5489 70.9678C32.4867 71.4911 32.544 72.0218 32.7165 72.5198C32.889 73.0177 33.1723 73.4701 33.5449 73.8428C33.9176 74.2154 34.37 74.4987 34.8679 74.6712C35.3659 74.8437 35.8966 74.901 36.4199 74.8388ZM51.9038 74.8388H44.1618C44.6852 74.901 45.2158 74.8437 45.7138 74.6712C46.2118 74.4987 46.6641 74.2154 47.0368 73.8428C47.4094 73.4701 47.6927 73.0177 47.8652 72.5198C48.0377 72.0218 48.095 71.4911 48.0328 70.9678C47.9705 71.4911 48.0278 72.0218 48.2004 72.5198C48.3729 73.0177 48.6561 73.4701 49.0288 73.8428C49.4015 74.2154 49.8538 74.4987 50.3518 74.6712C50.8498 74.8437 51.3804 74.901 51.9038 74.8388ZM44.1618 74.8388H36.4199C36.9432 74.901 37.4739 74.8437 37.9718 74.6712C38.4698 74.4987 38.9222 74.2154 39.2948 73.8428C39.6675 73.4701 39.9508 73.0177 40.1233 72.5198C40.2958 72.0218 40.3531 71.4911 40.2909 70.9678C40.2286 71.4911 40.2859 72.0218 40.4584 72.5198C40.631 73.0177 40.9142 73.4701 41.2869 73.8428C41.6595 74.2154 42.1119 74.4987 42.6099 74.6712C43.1079 74.8437 43.6385 74.901 44.1618 74.8388Z" fill="#CC5913"/>
<path d="M54.4846 74.8387C55.1684 74.8408 55.8236 75.1133 56.3071 75.5969C56.7906 76.0804 57.0632 76.7356 57.0652 77.4194C57.0601 78.1023 56.7866 78.7557 56.3038 79.2386C55.8209 79.7215 55.1674 79.995 54.4846 80H2.87166C2.18786 79.998 1.53265 79.7254 1.04913 79.2419C0.565602 78.7584 0.293058 78.1032 0.291016 77.4194C0.29608 76.7365 0.569595 76.0831 1.05247 75.6002C1.53534 75.1173 2.1888 74.8438 2.87166 74.8387H54.4846Z" fill="#FEA740"/>
<path d="M55.7751 70.9677C55.8374 71.4911 55.7801 72.0217 55.6075 72.5197C55.435 73.0177 55.1518 73.47 54.7791 73.8427C54.4064 74.2153 53.9541 74.4986 53.4561 74.6711C52.9581 74.8436 52.4275 74.9009 51.9041 74.8387C51.3808 74.9009 50.8502 74.8436 50.3522 74.6711C49.8542 74.4986 49.4019 74.2153 49.0292 73.8427C48.6565 73.47 48.3733 73.0177 48.2008 72.5197C48.0282 72.0217 47.9709 71.4911 48.0332 70.9677C48.0332 68.1161 50.6138 64.5161 51.9041 64.5161C53.1945 64.5161 55.7751 68.1161 55.7751 70.9677Z" fill="#FFCE64"/>
<path d="M50.6141 60.6065V60.6452H44.1625L42.8722 59.3548H31.2593L31.1432 59.3161C31.22 59.1232 31.2595 58.9174 31.2593 58.7097C31.2593 58.1964 31.0554 57.7041 30.6924 57.3411C30.3294 56.9781 29.8371 56.7742 29.3238 56.7742H26.098L13.1948 60.6452H6.74316V60.6065C6.74456 59.8502 6.96454 59.1105 7.3766 58.4763C7.78867 57.8422 8.37526 57.3407 9.06574 57.0323L19.4657 52.9677L20.9367 54.1936H36.4206L37.8916 52.9677L48.2915 57.0323C48.982 57.3407 49.5686 57.8422 49.9807 58.4763C50.3928 59.1105 50.6127 59.8502 50.6141 60.6065Z" fill="#FFCE54"/>
<path d="M45.4522 60.6452H50.6135C50.6003 61.6744 50.183 62.6572 49.4515 63.3814C48.7201 64.1056 47.7332 64.5132 46.7039 64.5162H18.3555L27.3877 60.6452H29.3232C29.7292 60.6495 30.1258 60.5224 30.4537 60.2829C30.7815 60.0434 31.0232 59.7043 31.1426 59.3162L31.2587 59.3549H42.8716L44.1619 60.6452H45.4522Z" fill="#FEA740"/>
<path d="M48.0333 70.9677C48.0955 71.491 48.0382 72.0217 47.8657 72.5196C47.6932 73.0176 47.4099 73.47 47.0373 73.8426C46.6646 74.2153 46.2122 74.4986 45.7143 74.6711C45.2163 74.8436 44.6856 74.9009 44.1623 74.8387C43.639 74.9009 43.1083 74.8436 42.6103 74.6711C42.1124 74.4986 41.66 74.2153 41.2873 73.8426C40.9147 73.47 40.6314 73.0176 40.4589 72.5196C40.2864 72.0217 40.2291 71.491 40.2913 70.9677C40.2913 68.1161 42.872 64.5161 44.1623 64.5161C45.4526 64.5161 48.0333 68.1161 48.0333 70.9677ZM37.8913 52.9677L36.4204 54.1935H29.9688V50.3225H35.13L39.001 46.4516L37.7752 37.8838C39.0933 35.3787 39.9251 32.6468 40.2268 29.8322C41.2314 30.6544 41.8901 31.8243 42.072 33.1096L44.1623 47.7419L37.8913 52.9677Z" fill="#FFDF64"/>
<path d="M39.0006 64.5161H44.1619C42.8715 64.5161 40.2909 68.1161 40.2909 70.9677C40.2909 68.1161 37.7102 64.5161 36.4199 64.5161H39.0006ZM46.7425 64.5161H51.9038C50.6135 64.5161 48.0328 68.1161 48.0328 70.9677C48.0328 68.1161 45.4522 64.5161 44.1619 64.5161H46.7425Z" fill="#CC5913"/>
<path d="M40.2907 70.9677C40.353 71.4911 40.2957 72.0217 40.1232 72.5197C39.9506 73.0177 39.6674 73.47 39.2947 73.8427C38.9221 74.2153 38.4697 74.4986 37.9717 74.6711C37.4737 74.8436 36.9431 74.9009 36.4198 74.8387C35.8964 74.9009 35.3658 74.8436 34.8678 74.6711C34.3698 74.4986 33.9175 74.2153 33.5448 73.8427C33.1722 73.47 32.8889 73.0177 32.7164 72.5197C32.5439 72.0217 32.4866 71.4911 32.5488 70.9677C32.5488 68.1161 35.1294 64.5161 36.4198 64.5161C37.7101 64.5161 40.2907 68.1161 40.2907 70.9677Z" fill="#FFCE64"/>
<path d="M37.7752 37.8839L39.001 46.4516L35.1301 50.3226V42.5806L34.9365 42.4387C36.0155 41.0073 36.9655 39.4831 37.7752 37.8839Z" fill="#CC5913"/>
<path d="M37.7755 37.8839C36.9658 39.4831 36.0158 41.0073 34.9368 42.4387C31.4529 47.0581 26.9368 50.3226 23.5175 50.3226L22.0723 49.2387L22.2271 49.0323V45.1613L19.6465 38.7097C26.6658 38.7097 32.3562 33.6903 32.5368 27.4194L38.2142 28.8387C38.9499 29.0185 39.637 29.3577 40.2271 29.8323C39.9254 32.6468 39.0936 35.3788 37.7755 37.8839Z" fill="#FEA740"/>
<path d="M28.6787 64.5161H36.4206C35.1303 64.5161 32.5497 68.1161 32.5497 70.9677C32.5497 68.1161 29.969 64.5161 28.6787 64.5161Z" fill="#CC5913"/>
<path d="M35.1295 42.5807V50.3227H23.5166C26.936 50.3227 31.4521 47.0581 34.936 42.4388L35.1295 42.5807Z" fill="#FFDF64"/>
<path d="M26.0977 22.3872C25.6986 22.1094 25.3384 21.7796 25.0267 21.4065C24.0332 20.1666 23.4998 18.621 23.517 17.0323V15.8968L23.8783 14.6065C23.9248 14.3314 24.028 14.069 24.1813 13.8359C24.3346 13.6028 24.5346 13.4041 24.7688 13.2525C25.003 13.1008 25.2661 12.9995 25.5415 12.9549C25.8169 12.9104 26.0986 12.9235 26.3686 12.9936C27.8561 13.5613 29.5005 13.5613 30.988 12.9936C31.258 12.9235 31.5397 12.9104 31.8151 12.9549C32.0905 12.9995 32.3536 13.1008 32.5878 13.2525C32.8219 13.4041 33.022 13.6028 33.1753 13.8359C33.3286 14.069 33.4318 14.3314 33.4783 14.6065L33.8396 15.8968V17.0323C33.8703 18.0664 33.6518 19.0927 33.2027 20.0246C32.7536 20.9566 32.0869 21.7669 31.2589 22.3872C30.509 22.9326 29.6056 23.2264 28.6783 23.2264C27.751 23.2264 26.8475 22.9326 26.0977 22.3872Z" fill="#FFE278"/>
<path d="M33.8392 12.3355V15.8968L33.4779 14.6064C33.4314 14.3314 33.3282 14.0689 33.1749 13.8358C33.0216 13.6028 32.8215 13.4041 32.5874 13.2524C32.3532 13.1007 32.0901 12.9994 31.8147 12.9549C31.5393 12.9103 31.2576 12.9235 30.9876 12.9935C29.5001 13.5612 27.8557 13.5612 26.3682 12.9935C26.0982 12.9235 25.8165 12.9103 25.5411 12.9549C25.2657 12.9994 25.0026 13.1007 24.7684 13.2524C24.5342 13.4041 24.3342 13.6028 24.1809 13.8358C24.0276 14.0689 23.9244 14.3314 23.8779 14.6064L23.5166 15.8968V12.3355C23.5964 11.0436 24.1838 9.83567 25.1507 8.97516C26.1176 8.11464 27.3855 7.67134 28.6779 7.74192C30.0173 7.73303 31.3146 8.20977 32.3295 9.08386C32.7971 9.48799 33.1735 9.98686 33.4338 10.5474C33.694 11.108 33.8322 11.7175 33.8392 12.3355Z" fill="#FFCE54"/>
<path d="M19.3238 38.671L18.3561 46.4516L22.0722 49.2387L23.5174 50.3226H29.969V54.1935H20.9367L19.4657 52.9677L13.1948 47.7419L15.2851 33.1097C15.4291 32.0943 15.8733 31.1451 16.5608 30.384C17.2483 29.623 18.1476 29.0848 19.1432 28.8387L26.098 27.0968V22.3871C26.8479 22.9326 27.7513 23.2264 28.6786 23.2264C29.6059 23.2264 30.5094 22.9326 31.2593 22.3871V27.0968L32.5367 27.4194C32.3561 33.6903 26.6657 38.7097 19.6464 38.7097L19.3238 38.671ZM32.5496 70.9677C32.6119 71.4911 32.5546 72.0217 32.382 72.5197C32.2095 73.0177 31.9263 73.47 31.5536 73.8427C31.1809 74.2154 30.7286 74.4986 30.2306 74.6711C29.7326 74.8437 29.202 74.901 28.6786 74.8387C28.1553 74.901 27.6247 74.8437 27.1267 74.6711C26.6287 74.4986 26.1764 74.2154 25.8037 73.8427C25.431 73.47 25.1478 73.0177 24.9753 72.5197C24.8027 72.0217 24.7454 71.4911 24.8077 70.9677C24.8077 68.1161 27.3883 64.5161 28.6786 64.5161C29.969 64.5161 32.5496 68.1161 32.5496 70.9677ZM31.2593 58.7097C31.2595 58.9174 31.22 59.1232 31.1432 59.3161C31.0238 59.7042 30.7821 60.0433 30.4543 60.2829C30.1264 60.5224 29.7298 60.6495 29.3238 60.6452H27.3883L18.3561 64.5161H10.6528C9.62352 64.5132 8.63664 64.1056 7.90519 63.3814C7.17374 62.6572 6.75637 61.6744 6.74316 60.6452H13.1948L26.098 56.7742H29.3238C29.8371 56.7742 30.3294 56.9781 30.6924 57.3411C31.0554 57.7041 31.2593 58.1964 31.2593 58.7097ZM31.2593 4.51613C31.2593 6.29677 30.8206 7.74194 28.6786 7.74194C26.5367 7.74194 26.098 6.29677 26.098 4.51613C26.098 2.73548 28.6786 0 28.6786 0C28.6786 0 31.2593 2.73548 31.2593 4.51613Z" fill="#FFCE64"/>
<path d="M20.9365 64.5161H28.6785C27.3881 64.5161 24.8075 68.1161 24.8075 70.9677C24.8075 68.1161 22.2268 64.5161 20.9365 64.5161Z" fill="#CC5913"/>
<path d="M24.8073 70.9677C24.8696 71.4911 24.8123 72.0217 24.6398 72.5197C24.4672 73.0177 24.184 73.47 23.8113 73.8427C23.4387 74.2153 22.9863 74.4986 22.4883 74.6711C21.9903 74.8436 21.4597 74.9009 20.9364 74.8387C20.413 74.9009 19.8824 74.8436 19.3844 74.6711C18.8864 74.4986 18.4341 74.2153 18.0614 73.8427C17.6888 73.47 17.4055 73.0177 17.233 72.5197C17.0605 72.0217 17.0032 71.4911 17.0654 70.9677C17.0654 68.1161 19.646 64.5161 20.9364 64.5161C22.2267 64.5161 24.8073 68.1161 24.8073 70.9677Z" fill="#FFCE64"/>
<path d="M22.2263 45.1613V49.0323L22.0715 49.2387L18.3554 46.4516L19.3231 38.671L19.6457 38.7097L22.2263 45.1613ZM18.3554 64.5162H20.936C19.6457 64.5162 17.0651 68.1162 17.0651 70.9678C17.0651 68.1162 14.4844 64.5162 13.1941 64.5162H18.3554ZM10.6134 64.5162H13.1941C11.9038 64.5162 9.32312 68.1162 9.32312 70.9678C9.32312 68.1162 6.74247 64.5162 5.45215 64.5162H10.6134Z" fill="#CC5913"/>
<path d="M17.0651 70.9677C17.1274 71.4911 17.0701 72.0217 16.8976 72.5197C16.7251 73.0177 16.4418 73.47 16.0691 73.8427C15.6965 74.2153 15.2441 74.4986 14.7461 74.6711C14.2482 74.8436 13.7175 74.9009 13.1942 74.8387C12.6708 74.9009 12.1402 74.8436 11.6422 74.6711C11.1442 74.4986 10.6919 74.2153 10.3192 73.8427C9.94657 73.47 9.66331 73.0177 9.49079 72.5197C9.31826 72.0217 9.26097 71.4911 9.32321 70.9677C9.32321 68.1161 11.9039 64.5161 13.1942 64.5161C14.4845 64.5161 17.0651 68.1161 17.0651 70.9677Z" fill="#FFCE64"/>
<path d="M9.32296 70.9677C9.38521 71.4911 9.32791 72.0217 9.15539 72.5197C8.98286 73.0177 8.69961 73.47 8.32694 73.8427C7.95428 74.2153 7.50193 74.4986 7.00395 74.6711C6.50596 74.8436 5.97533 74.9009 5.45199 74.8387C4.92866 74.9009 4.39803 74.8436 3.90004 74.6711C3.40206 74.4986 2.9497 74.2153 2.57704 73.8427C2.20438 73.47 1.92112 73.0177 1.7486 72.5197C1.57608 72.0217 1.51878 71.4911 1.58103 70.9677C1.58103 68.1161 4.16167 64.5161 5.45199 64.5161C6.74232 64.5161 9.32296 68.1161 9.32296 70.9677Z" fill="#FFCE64"/>
<path d="M2.87188 77.4194H54.4848C54.9354 77.4219 55.3774 77.5423 55.767 77.7687C56.1566 77.995 56.4801 78.3195 56.7054 78.7097C56.9391 78.3197 57.0634 77.874 57.0654 77.4194C57.0634 76.7356 56.7908 76.0803 56.3073 75.5968C55.8238 75.1133 55.1686 74.8408 54.4848 74.8387H2.87188C2.41762 74.8348 1.97051 74.9519 1.57644 75.1779C1.18237 75.4039 0.855531 75.7307 0.62948 76.1248C0.40343 76.5188 0.286306 76.9659 0.29013 77.4202C0.293954 77.8744 0.418588 78.3195 0.65124 78.7097C0.875225 78.3183 1.19846 77.993 1.58835 77.7664C1.97823 77.5399 2.42096 77.4202 2.87188 77.4194Z" fill="#FFCE54"/>
<path d="M32.5493 13.2387V17.5484C32.59 18.4558 32.4387 19.3617 32.1051 20.2067C31.7716 21.0516 31.2634 21.8166 30.6138 22.4516C30.0828 22.9341 29.3956 23.209 28.6783 23.2258C29.6044 23.2187 30.5057 22.9258 31.2589 22.3871C32.0869 21.7668 32.7536 20.9565 33.2027 20.0246C33.6518 19.0926 33.8703 18.0663 33.8396 17.0322V15.8967L33.4783 14.6064C33.3363 14.0567 33.008 13.5733 32.5493 13.2387ZM25.9402 21.5574C25.1772 20.3612 24.7832 18.9669 24.8073 17.5484V13.2387C24.3486 13.5733 24.0203 14.0567 23.8783 14.6064L23.517 15.8967V17.0322C23.4998 18.6209 24.0332 20.1666 25.0267 21.4064C25.3384 21.7795 25.6986 22.1093 26.0977 22.3871C26.8509 22.9258 27.7522 23.2187 28.6783 23.2258C27.961 23.209 27.2738 22.9341 26.7428 22.4516C26.4366 22.1907 26.1666 21.8899 25.9402 21.5574Z" fill="#FFFDD9"/>
<path d="M32.3295 9.08386C31.3146 8.20977 30.0173 7.73303 28.6779 7.74192C27.3855 7.67134 26.1176 8.11464 25.1507 8.97516C24.1838 9.83567 23.5964 11.0436 23.5166 12.3355V15.8968L23.8779 14.6064C24.0198 14.0567 24.3482 13.5733 24.8069 13.2387C24.7639 12.168 25.1473 11.1239 25.8729 10.3353C26.5986 9.54679 27.6073 9.07818 28.6779 9.03225C29.1944 9.03712 29.7044 9.14889 30.1756 9.36052C30.6469 9.57215 31.0692 9.87906 31.416 10.2619C32.1512 11.0784 32.5552 12.14 32.5489 13.2387C33.0076 13.5733 33.3359 14.0567 33.4779 14.6064L33.8392 15.8968V12.3355C33.8322 11.7175 33.694 11.108 33.4338 10.5474C33.1735 9.98686 32.7971 9.48799 32.3295 9.08386Z" fill="#FFDF64"/>
<path d="M26.098 58.0645H29.3238C29.7186 58.0652 30.1037 58.1872 30.4269 58.4141C30.75 58.641 30.9956 58.9618 31.1303 59.3329L31.1393 59.3161C31.2175 59.1235 31.2582 58.9176 31.2593 58.7097C31.2593 58.1964 31.0554 57.7041 30.6924 57.3411C30.3294 56.9781 29.8371 56.7742 29.3238 56.7742H26.098L13.1948 60.6452H6.74316C6.75492 61.0868 6.8422 61.5233 7.00123 61.9355H13.1948L26.098 58.0645ZM31.0541 6.14839C31.2021 5.61728 31.2712 5.06732 31.2593 4.51613C31.2593 2.73548 28.6786 0 28.6786 0C28.6786 0 26.098 2.73548 26.098 4.51613C26.0861 5.06732 26.1552 5.61728 26.3032 6.14839C26.8943 4.83709 27.6968 3.63179 28.6786 2.58065C29.6605 3.63179 30.463 4.83709 31.0541 6.14839ZM40.227 29.8323C40.0825 31.2996 39.777 32.7466 39.3161 34.1471L41.2219 45.5858C41.3224 46.1884 41.6334 46.7357 42.0995 47.1306C42.5657 47.5254 43.1568 47.742 43.7677 47.7419H44.1625L42.0722 33.1097C41.8903 31.8243 41.2316 30.6544 40.227 29.8323Z" fill="#FFE278"/>
<path d="M33.024 30.2658L37.5272 31.7665C37.9722 31.9149 38.3683 32.1818 38.673 32.5385C38.9776 32.8953 39.1793 33.3283 39.2563 33.791L39.3156 34.1471C39.7765 32.7466 40.082 31.2996 40.2266 29.8323C39.6365 29.3577 38.9493 29.0185 38.2137 28.8387L32.5363 27.4194C32.5122 28.2169 32.3975 29.0091 32.1943 29.7807C32.4374 29.9939 32.719 30.1586 33.024 30.2658Z" fill="#FFCE54"/>
<path d="M23.5169 50.3225L22.0718 49.2387L18.3556 46.4516L18.1169 46.6903C17.9862 46.821 17.8851 46.9783 17.8205 47.1514C17.7558 47.3246 17.7292 47.5097 17.7423 47.694C17.7553 47.8784 17.8079 48.0579 17.8964 48.2202C17.9848 48.3825 18.1071 48.5239 18.255 48.6348L21.8821 51.3548C22.1054 51.5223 22.3771 51.6129 22.6563 51.6129H27.3879C27.7301 51.6129 28.0583 51.7488 28.3003 51.9908C28.5423 52.2328 28.6782 52.561 28.6782 52.9032V54.1935H29.9685V50.3225H23.5169ZM16.135 45.5858L18.0976 33.7909C18.1745 33.3282 18.3762 32.8952 18.6808 32.5385C18.9855 32.1818 19.3816 31.9149 19.8266 31.7664L24.3298 30.2658C24.8444 30.095 25.2921 29.7665 25.6094 29.3269C25.9267 28.8873 26.0975 28.3589 26.0976 27.8167V27.0967L19.1427 28.8387C18.1471 29.0848 17.2478 29.6229 16.5603 30.384C15.8729 31.145 15.4286 32.0942 15.2847 33.1096L13.1943 47.7419H13.5892C14.2001 47.742 14.7912 47.5253 15.2573 47.1305C15.7235 46.7357 16.0345 46.1883 16.135 45.5858Z" fill="#FFE278"/>
<path d="M32.1943 29.7806C32.3974 29.009 32.5121 28.2168 32.5362 27.4193L31.2588 27.0967V27.8167C31.2614 28.1926 31.3465 28.5633 31.5082 28.9027C31.6698 29.242 31.904 29.5417 32.1943 29.7806Z" fill="#FFDF64"/>
<path d="M24.7587 43.6981L23.9329 40.7845C23.816 40.1993 23.4998 39.6727 23.0382 39.2944C22.5766 38.9161 21.9981 38.7095 21.4013 38.7097H19.6465L22.2271 45.1613V49.0323L22.0723 49.2387L23.5175 50.3226C23.9513 50.3193 24.3837 50.2713 24.8078 50.1794V44.0503C24.8076 43.9312 24.7911 43.8127 24.7587 43.6981Z" fill="#FF942C"/>
<path d="M11.4516 59.0413L20.0967 55.7974C20.3431 55.7057 20.5556 55.5408 20.7057 55.325C20.8558 55.1091 20.9364 54.8526 20.9367 54.5897V54.1936L19.4657 52.9677L9.06574 57.0323C8.37526 57.3407 7.78867 57.8422 7.3766 58.4763C6.96454 59.1105 6.74456 59.8502 6.74316 60.6065V60.6452H10.6141V60.249C10.6142 59.9864 10.6945 59.7301 10.8441 59.5143C10.9937 59.2985 11.2056 59.1335 11.4516 59.0413ZM50.6141 60.6065C50.6127 59.8502 50.3928 59.1105 49.9807 58.4763C49.5686 57.8422 48.982 57.3407 48.2915 57.0323L37.8916 52.9677L36.4206 54.1936V54.5897C36.4207 54.8523 36.5009 55.1086 36.6505 55.3244C36.8002 55.5402 37.0121 55.7052 37.258 55.7974L45.9032 59.0413C46.1491 59.1335 46.361 59.2985 46.5106 59.5143C46.6603 59.7301 46.7405 59.9864 46.7406 60.249V60.6452H50.6115L50.6141 60.6065Z" fill="#FFE278"/>
<path d="M31.5722 62.1794C31.8513 62.1095 32.0989 61.9484 32.2759 61.7216C32.4529 61.4948 32.549 61.2154 32.549 60.9278V59.3549H31.2587L31.1426 59.3162C31.0232 59.7043 30.7815 60.0434 30.4537 60.2829C30.1258 60.5224 29.7292 60.6495 29.3232 60.6452H27.3877L18.3555 64.5162H46.7039C47.217 64.5157 47.725 64.414 48.1988 64.2169C48.6727 64.0199 49.103 63.7313 49.4651 63.3678C49.509 63.3239 49.5413 63.271 49.5826 63.2258H26.0974L31.5722 62.1794Z" fill="#FF942C"/>
<path d="M54.4845 72.4194C54.5127 72.7585 54.4639 73.0995 54.3417 73.417C54.2195 73.7345 54.0272 74.0202 53.779 74.2529C53.5308 74.4856 53.2332 74.6591 52.9085 74.7606C52.5838 74.862 52.2403 74.8888 51.9038 74.8388C51.5673 74.8888 51.2239 74.862 50.8992 74.7606C50.5745 74.6591 50.2769 74.4856 50.0287 74.2529C49.7805 74.0202 49.5881 73.7345 49.466 73.417C49.3438 73.0995 49.295 72.7585 49.3232 72.4194C49.3232 70.6375 51.0432 68.3872 51.9038 68.3872C52.7645 68.3872 54.4845 70.6375 54.4845 72.4194Z" fill="#FFB844"/>
<path d="M49.3233 72.4193C49.3332 72.0725 49.3922 71.7289 49.4988 71.3987C48.8979 70.9194 48.4546 70.2708 48.2265 69.5367C48.1048 70.0042 48.0398 70.4847 48.033 70.9677C47.9714 71.4441 48.0113 71.9281 48.1503 72.3879C48.2892 72.8477 48.524 73.2728 48.8391 73.6354C49.1542 73.9979 49.5425 74.2896 49.9785 74.4912C50.4144 74.6928 50.8882 74.7998 51.3685 74.8051C51.0745 74.7913 50.7864 74.7175 50.522 74.5883C50.2576 74.4591 50.0224 74.2772 49.8308 74.0537C49.6393 73.8303 49.4955 73.57 49.4082 73.289C49.3209 73.0079 49.292 72.712 49.3233 72.4193ZM54.3091 71.3987C54.4157 71.7289 54.4748 72.0725 54.4846 72.4193C54.5159 72.712 54.487 73.0079 54.3997 73.289C54.3124 73.57 54.1686 73.8303 53.9771 74.0537C53.7855 74.2772 53.5503 74.4591 53.2859 74.5883C53.0215 74.7175 52.7334 74.7913 52.4394 74.8051C52.9197 74.7998 53.3935 74.6928 53.8294 74.4912C54.2654 74.2896 54.6537 73.9979 54.9688 73.6354C55.2839 73.2728 55.5187 72.8477 55.6576 72.3879C55.7966 71.9281 55.8365 71.4441 55.7749 70.9677C55.7681 70.4847 55.7031 70.0042 55.5814 69.5367C55.3533 70.2708 54.9101 70.9194 54.3091 71.3987Z" fill="#FFB844"/>
<path d="M54.485 72.4194C54.4752 72.0726 54.4161 71.7289 54.3096 71.3987C53.6312 71.9546 52.7814 72.2583 51.9044 72.2583C51.0274 72.2583 50.1776 71.9546 49.4992 71.3987C49.3927 71.7289 49.3336 72.0726 49.3238 72.4194C49.2925 72.712 49.3214 73.008 49.4086 73.289C49.4959 73.5701 49.6397 73.8304 49.8313 74.0538C50.0228 74.2773 50.258 74.4592 50.5225 74.5884C50.7869 74.7176 51.0749 74.7914 51.3689 74.8052C51.5457 74.8207 51.7212 74.8387 51.9044 74.8387C52.0876 74.8387 52.2631 74.8207 52.4399 74.8052C52.7339 74.7914 53.0219 74.7176 53.2863 74.5884C53.5508 74.4592 53.786 74.2773 53.9775 74.0538C54.1691 73.8304 54.3129 73.5701 54.4002 73.289C54.4874 73.008 54.5163 72.712 54.485 72.4194Z" fill="#FF942C"/>
<path d="M46.7423 72.4194C46.7705 72.7585 46.7217 73.0995 46.5995 73.417C46.4774 73.7345 46.285 74.0202 46.0368 74.2529C45.7886 74.4856 45.491 74.6591 45.1663 74.7606C44.8416 74.862 44.4982 74.8888 44.1617 74.8388C43.8252 74.8888 43.4817 74.862 43.157 74.7606C42.8323 74.6591 42.5347 74.4856 42.2865 74.2529C42.0383 74.0202 41.846 73.7345 41.7238 73.417C41.6016 73.0995 41.5528 72.7585 41.581 72.4194C41.581 70.6375 43.301 68.3872 44.1617 68.3872C45.0223 68.3872 46.7423 70.6375 46.7423 72.4194Z" fill="#FFB844"/>
<path d="M41.5811 72.4193C41.591 72.0725 41.6501 71.7289 41.7566 71.3987C41.1557 70.9194 40.7125 70.2708 40.4844 69.5367C40.3626 70.0042 40.2976 70.4847 40.2908 70.9677C40.2292 71.4441 40.2692 71.9281 40.4081 72.3879C40.547 72.8477 40.7818 73.2728 41.0969 73.6354C41.412 73.9979 41.8003 74.2896 42.2363 74.4912C42.6723 74.6928 43.146 74.7998 43.6263 74.8051C43.3323 74.7913 43.0442 74.7175 42.7798 74.5883C42.5154 74.4591 42.2802 74.2772 42.0886 74.0537C41.8971 73.8303 41.7533 73.57 41.666 73.289C41.5787 73.0079 41.5498 72.712 41.5811 72.4193ZM46.5669 71.3987C46.6735 71.7289 46.7326 72.0725 46.7424 72.4193C46.7737 72.712 46.7448 73.0079 46.6575 73.289C46.5703 73.57 46.4264 73.8303 46.2349 74.0537C46.0433 74.2772 45.8081 74.4591 45.5437 74.5883C45.2793 74.7175 44.9912 74.7913 44.6973 74.8051C45.1776 74.7998 45.6513 74.6928 46.0872 74.4912C46.5232 74.2896 46.9115 73.9979 47.2266 73.6354C47.5418 73.2728 47.7765 72.8477 47.9154 72.3879C48.0544 71.9281 48.0944 71.4441 48.0327 70.9677C48.0259 70.4847 47.9609 70.0042 47.8392 69.5367C47.6111 70.2708 47.1679 70.9194 46.5669 71.3987Z" fill="#FFB844"/>
<path d="M46.7429 72.4194C46.733 72.0726 46.6739 71.7289 46.5674 71.3987C45.889 71.9546 45.0392 72.2583 44.1622 72.2583C43.2853 72.2583 42.4354 71.9546 41.7571 71.3987C41.6505 71.7289 41.5914 72.0726 41.5816 72.4194C41.5503 72.712 41.5792 73.008 41.6664 73.289C41.7537 73.5701 41.8976 73.8304 42.0891 74.0538C42.2806 74.2773 42.5158 74.4592 42.7803 74.5884C43.0447 74.7176 43.3327 74.7914 43.6267 74.8052C43.8035 74.8207 43.979 74.8387 44.1622 74.8387C44.3454 74.8387 44.5209 74.8207 44.6977 74.8052C44.9917 74.7914 45.2797 74.7176 45.5442 74.5884C45.8086 74.4592 46.0438 74.2773 46.2353 74.0538C46.4269 73.8304 46.5707 73.5701 46.658 73.289C46.7453 73.008 46.7741 72.712 46.7429 72.4194Z" fill="#FF942C"/>
<path d="M39.0011 72.4194C39.0293 72.7585 38.9805 73.0995 38.8583 73.417C38.7361 73.7345 38.5438 74.0202 38.2956 74.2529C38.0474 74.4856 37.7498 74.6591 37.4251 74.7606C37.1004 74.862 36.7569 74.8888 36.4204 74.8388C36.0839 74.8888 35.7405 74.862 35.4158 74.7606C35.0911 74.6591 34.7935 74.4856 34.5453 74.2529C34.2971 74.0202 34.1047 73.7345 33.9826 73.417C33.8604 73.0995 33.8116 72.7585 33.8398 72.4194C33.8398 70.6375 35.5598 68.3872 36.4204 68.3872C37.2811 68.3872 39.0011 70.6375 39.0011 72.4194Z" fill="#FFB844"/>
<path d="M33.8399 72.4193C33.8498 72.0725 33.9088 71.7289 34.0154 71.3987C33.4145 70.9194 32.9712 70.2708 32.7431 69.5367C32.6214 70.0042 32.5564 70.4847 32.5496 70.9677C32.488 71.4441 32.5279 71.9281 32.6669 72.3879C32.8058 72.8477 33.0406 73.2728 33.3557 73.6354C33.6708 73.9979 34.0591 74.2896 34.4951 74.4912C34.931 74.6928 35.4048 74.7998 35.8851 74.8051C35.5911 74.7913 35.303 74.7175 35.0386 74.5883C34.7742 74.4591 34.539 74.2772 34.3474 74.0537C34.1559 73.8303 34.0121 73.57 33.9248 73.289C33.8375 73.0079 33.8086 72.712 33.8399 72.4193ZM38.8257 71.3987C38.9323 71.7289 38.9914 72.0725 39.0012 72.4193C39.0325 72.712 39.0036 73.0079 38.9163 73.289C38.829 73.57 38.6852 73.8303 38.4937 74.0537C38.3021 74.2772 38.0669 74.4591 37.8025 74.5883C37.5381 74.7175 37.25 74.7913 36.956 74.8051C37.4363 74.7998 37.9101 74.6928 38.346 74.4912C38.782 74.2896 39.1703 73.9979 39.4854 73.6354C39.8005 73.2728 40.0353 72.8477 40.1742 72.3879C40.3132 71.9281 40.3531 71.4441 40.2915 70.9677C40.2847 70.4847 40.2197 70.0042 40.098 69.5367C39.8699 70.2708 39.4267 70.9194 38.8257 71.3987Z" fill="#FFB844"/>
<path d="M39.0007 72.4194C38.9908 72.0726 38.9317 71.7289 38.8252 71.3987C38.1469 71.9546 37.297 72.2583 36.42 72.2583C35.5431 72.2583 34.6932 71.9546 34.0149 71.3987C33.9083 71.7289 33.8492 72.0726 33.8394 72.4194C33.8081 72.712 33.837 73.008 33.9243 73.289C34.0115 73.5701 34.1554 73.8304 34.3469 74.0538C34.5384 74.2773 34.7737 74.4592 35.0381 74.5884C35.3025 74.7176 35.5906 74.7914 35.8845 74.8052C36.0613 74.8207 36.2368 74.8387 36.42 74.8387C36.6033 74.8387 36.7787 74.8207 36.9555 74.8052C37.2495 74.7914 37.5375 74.7176 37.802 74.5884C38.0664 74.4592 38.3016 74.2773 38.4931 74.0538C38.6847 73.8304 38.8285 73.5701 38.9158 73.289C39.0031 73.008 39.032 72.712 39.0007 72.4194Z" fill="#FF942C"/>
<path d="M31.2589 72.4194C31.2871 72.7585 31.2383 73.0995 31.1161 73.417C30.994 73.7345 30.8016 74.0202 30.5534 74.2529C30.3052 74.4856 30.0076 74.6591 29.6829 74.7606C29.3582 74.862 29.0148 74.8888 28.6783 74.8388C28.3418 74.8888 27.9983 74.862 27.6736 74.7606C27.3489 74.6591 27.0513 74.4856 26.8031 74.2529C26.5549 74.0202 26.3626 73.7345 26.2404 73.417C26.1182 73.0995 26.0694 72.7585 26.0976 72.4194C26.0976 70.6375 27.8176 68.3872 28.6783 68.3872C29.5389 68.3872 31.2589 70.6375 31.2589 72.4194Z" fill="#FFB844"/>
<path d="M26.0977 72.4193C26.1076 72.0725 26.1667 71.7289 26.2732 71.3987C25.6723 70.9194 25.2291 70.2708 25.0009 69.5367C24.8792 70.0042 24.8142 70.4847 24.8074 70.9677C24.7458 71.4441 24.7858 71.9281 24.9247 72.3879C25.0636 72.8477 25.2984 73.2728 25.6135 73.6354C25.9286 73.9979 26.3169 74.2896 26.7529 74.4912C27.1889 74.6928 27.6626 74.7998 28.1429 74.8051C27.8489 74.7913 27.5608 74.7175 27.2964 74.5883C27.032 74.4591 26.7968 74.2772 26.6053 74.0537C26.4137 73.8303 26.2699 73.57 26.1826 73.289C26.0953 73.0079 26.0664 72.712 26.0977 72.4193ZM31.0835 71.3987C31.1901 71.7289 31.2492 72.0725 31.259 72.4193C31.2903 72.712 31.2614 73.0079 31.1741 73.289C31.0869 73.57 30.943 73.8303 30.7515 74.0537C30.5599 74.2772 30.3247 74.4591 30.0603 74.5883C29.7959 74.7175 29.5078 74.7913 29.2139 74.8051C29.6942 74.7998 30.1679 74.6928 30.6039 74.4912C31.0398 74.2896 31.4281 73.9979 31.7432 73.6354C32.0584 73.2728 32.2931 72.8477 32.432 72.3879C32.571 71.9281 32.611 71.4441 32.5493 70.9677C32.5425 70.4847 32.4776 70.0042 32.3558 69.5367C32.1277 70.2708 31.6845 70.9194 31.0835 71.3987Z" fill="#FFB844"/>
<path d="M31.2585 72.4194C31.2486 72.0726 31.1895 71.7289 31.083 71.3987C30.4047 71.9546 29.5548 72.2583 28.6778 72.2583C27.8009 72.2583 26.951 71.9546 26.2727 71.3987C26.1661 71.7289 26.107 72.0726 26.0972 72.4194C26.0659 72.712 26.0948 73.008 26.1821 73.289C26.2693 73.5701 26.4132 73.8304 26.6047 74.0538C26.7963 74.2773 27.0315 74.4592 27.2959 74.5884C27.5603 74.7176 27.8484 74.7914 28.1424 74.8052C28.3191 74.8207 28.4946 74.8387 28.6778 74.8387C28.8611 74.8387 29.0365 74.8207 29.2133 74.8052C29.5073 74.7914 29.7954 74.7176 30.0598 74.5884C30.3242 74.4592 30.5594 74.2773 30.751 74.0538C30.9425 73.8304 31.0863 73.5701 31.1736 73.289C31.2609 73.008 31.2898 72.712 31.2585 72.4194Z" fill="#FF942C"/>
<path d="M23.5167 72.4194C23.5449 72.7585 23.4961 73.0995 23.3739 73.417C23.2518 73.7345 23.0594 74.0202 22.8112 74.2529C22.563 74.4856 22.2654 74.6591 21.9407 74.7606C21.616 74.862 21.2726 74.8888 20.9361 74.8388C20.5996 74.8888 20.2561 74.862 19.9314 74.7606C19.6067 74.6591 19.3091 74.4856 19.0609 74.2529C18.8127 74.0202 18.6204 73.7345 18.4982 73.417C18.376 73.0995 18.3272 72.7585 18.3554 72.4194C18.3554 70.6375 20.0754 68.3872 20.9361 68.3872C21.7967 68.3872 23.5167 70.6375 23.5167 72.4194Z" fill="#FFB844"/>
<path d="M18.3555 72.4193C18.3654 72.0725 18.4245 71.7289 18.531 71.3987C17.9301 70.9194 17.4869 70.2708 17.2588 69.5367C17.137 70.0042 17.072 70.4847 17.0652 70.9677C17.0036 71.4441 17.0436 71.9281 17.1825 72.3879C17.3214 72.8477 17.5562 73.2728 17.8713 73.6354C18.1864 73.9979 18.5747 74.2896 19.0107 74.4912C19.4467 74.6928 19.9204 74.7998 20.4007 74.8051C20.1067 74.7913 19.8187 74.7175 19.5542 74.5883C19.2898 74.4591 19.0546 74.2772 18.8631 74.0537C18.6715 73.8303 18.5277 73.57 18.4404 73.289C18.3531 73.0079 18.3243 72.712 18.3555 72.4193ZM23.3413 71.3987C23.4479 71.7289 23.507 72.0725 23.5168 72.4193C23.5481 72.712 23.5192 73.0079 23.432 73.289C23.3447 73.57 23.2008 73.8303 23.0093 74.0537C22.8178 74.2772 22.5825 74.4591 22.3181 74.5883C22.0537 74.7175 21.7656 74.7913 21.4717 74.8051C21.952 74.7998 22.4257 74.6928 22.8617 74.4912C23.2976 74.2896 23.686 73.9979 24.0011 73.6354C24.3162 73.2728 24.5509 72.8477 24.6899 72.3879C24.8288 71.9281 24.8688 71.4441 24.8071 70.9677C24.8003 70.4847 24.7354 70.0042 24.6136 69.5367C24.3855 70.2708 23.9423 70.9194 23.3413 71.3987Z" fill="#FFB844"/>
<path d="M23.5173 72.4194C23.5074 72.0726 23.4483 71.7289 23.3418 71.3987C22.6635 71.9546 21.8136 72.2583 20.9366 72.2583C20.0597 72.2583 19.2098 71.9546 18.5315 71.3987C18.4249 71.7289 18.3658 72.0726 18.356 72.4194C18.3247 72.712 18.3536 73.008 18.4409 73.289C18.5281 73.5701 18.672 73.8304 18.8635 74.0538C19.0551 74.2773 19.2903 74.4592 19.5547 74.5884C19.8191 74.7176 20.1072 74.7914 20.4011 74.8052C20.5779 74.8207 20.7534 74.8387 20.9366 74.8387C21.1199 74.8387 21.2953 74.8207 21.4721 74.8052C21.7661 74.7914 22.0541 74.7176 22.3186 74.5884C22.583 74.4592 22.8182 74.2773 23.0097 74.0538C23.2013 73.8304 23.3451 73.5701 23.4324 73.289C23.5197 73.008 23.5486 72.712 23.5173 72.4194Z" fill="#FF942C"/>
<path d="M15.7745 72.4194C15.8027 72.7585 15.7539 73.0995 15.6317 73.417C15.5096 73.7345 15.3172 74.0202 15.069 74.2529C14.8208 74.4856 14.5233 74.6591 14.1985 74.7606C13.8738 74.862 13.5304 74.8888 13.1939 74.8388C12.8574 74.8888 12.5139 74.862 12.1892 74.7606C11.8645 74.6591 11.5669 74.4856 11.3187 74.2529C11.0706 74.0202 10.8782 73.7345 10.756 73.417C10.6338 73.0995 10.585 72.7585 10.6132 72.4194C10.6132 70.6375 12.3332 68.3872 13.1939 68.3872C14.0545 68.3872 15.7745 70.6375 15.7745 72.4194Z" fill="#FFB844"/>
<path d="M10.6133 72.4193C10.6232 72.0725 10.6823 71.7289 10.7888 71.3987C10.1879 70.9194 9.74468 70.2708 9.51657 69.5367C9.39481 70.0042 9.32983 70.4847 9.32303 70.9677C9.26141 71.4441 9.30138 71.9281 9.44032 72.3879C9.57926 72.8477 9.81401 73.2728 10.1291 73.6354C10.4442 73.9979 10.8325 74.2896 11.2685 74.4912C11.7045 74.6928 12.1782 74.7998 12.6585 74.8051C12.3645 74.7913 12.0765 74.7175 11.812 74.5883C11.5476 74.4591 11.3124 74.2772 11.1209 74.0537C10.9293 73.8303 10.7855 73.57 10.6982 73.289C10.6109 73.0079 10.5821 72.712 10.6133 72.4193ZM15.5992 71.3987C15.7057 71.7289 15.7648 72.0725 15.7746 72.4193C15.8059 72.712 15.777 73.0079 15.6898 73.289C15.6025 73.57 15.4587 73.8303 15.2671 74.0537C15.0756 74.2772 14.8404 74.4591 14.5759 74.5883C14.3115 74.7175 14.0235 74.7913 13.7295 74.8051C14.2098 74.7998 14.6835 74.6928 15.1195 74.4912C15.5554 74.2896 15.9438 73.9979 16.2589 73.6354C16.574 73.2728 16.8087 72.8477 16.9477 72.3879C17.0866 71.9281 17.1266 71.4441 17.065 70.9677C17.0582 70.4847 16.9932 70.0042 16.8714 69.5367C16.6433 70.2708 16.2001 70.9194 15.5992 71.3987Z" fill="#FFB844"/>
<path d="M15.7751 72.4194C15.7652 72.0726 15.7062 71.7289 15.5996 71.3987C14.9213 71.9546 14.0714 72.2583 13.1944 72.2583C12.3175 72.2583 11.4676 71.9546 10.7893 71.3987C10.6827 71.7289 10.6236 72.0726 10.6138 72.4194C10.5825 72.712 10.6114 73.008 10.6987 73.289C10.7859 73.5701 10.9298 73.8304 11.1213 74.0538C11.3129 74.2773 11.5481 74.4592 11.8125 74.5884C12.0769 74.7176 12.365 74.7914 12.659 74.8052C12.8357 74.8207 13.0112 74.8387 13.1944 74.8387C13.3777 74.8387 13.5532 74.8207 13.7299 74.8052C14.0239 74.7914 14.312 74.7176 14.5764 74.5884C14.8408 74.4592 15.076 74.2773 15.2676 74.0538C15.4591 73.8304 15.6029 73.5701 15.6902 73.289C15.7775 73.008 15.8064 72.712 15.7751 72.4194Z" fill="#FF942C"/>
<path d="M8.03332 72.4194C8.06152 72.7585 8.01271 73.0995 7.89054 73.417C7.76837 73.7345 7.57599 74.0202 7.32781 74.2529C7.07963 74.4856 6.78205 74.6591 6.45734 74.7606C6.13262 74.862 5.78917 74.8888 5.45267 74.8388C5.11617 74.8888 4.77272 74.862 4.44801 74.7606C4.12329 74.6591 3.82572 74.4856 3.57753 74.2529C3.32935 74.0202 3.13698 73.7345 3.01481 73.417C2.89263 73.0995 2.84382 72.7585 2.87203 72.4194C2.87203 70.6375 4.59203 68.3872 5.45267 68.3872C6.31332 68.3872 8.03332 70.6375 8.03332 72.4194Z" fill="#FFB844"/>
<path d="M2.87214 72.4193C2.88199 72.0725 2.94107 71.7289 3.04762 71.3987C2.44669 70.9194 2.00347 70.2708 1.77536 69.5367C1.6536 70.0042 1.58861 70.4847 1.58182 70.9677C1.5202 71.4441 1.56017 71.9281 1.69911 72.3879C1.83805 72.8477 2.0728 73.2728 2.3879 73.6354C2.70301 73.9979 3.09133 74.2896 3.5273 74.4912C3.96327 74.6928 4.437 74.7998 4.9173 74.8051C4.62332 74.7913 4.33526 74.7175 4.07084 74.5883C3.80642 74.4591 3.57121 74.2772 3.37966 74.0537C3.18812 73.8303 3.04429 73.57 2.95701 73.289C2.86974 73.0079 2.84085 72.712 2.87214 72.4193ZM7.85794 71.3987C7.96449 71.7289 8.02358 72.0725 8.03343 72.4193C8.06471 72.712 8.03583 73.0079 7.94855 73.289C7.86127 73.57 7.71744 73.8303 7.5259 74.0537C7.33436 74.2772 7.09915 74.4591 6.83473 74.5883C6.5703 74.7175 6.28225 74.7913 5.98827 74.8051C6.46857 74.7998 6.9423 74.6928 7.37826 74.4912C7.81423 74.2896 8.20255 73.9979 8.51766 73.6354C8.83277 73.2728 9.06752 72.8477 9.20646 72.3879C9.3454 71.9281 9.38537 71.4441 9.32375 70.9677C9.31695 70.4847 9.25197 70.0042 9.1302 69.5367C8.9021 70.2708 8.45888 70.9194 7.85794 71.3987Z" fill="#FFB844"/>
<path d="M8.0329 72.4194C8.02305 72.0726 7.96396 71.7289 7.85741 71.3987C7.17909 71.9546 6.32921 72.2583 5.45225 72.2583C4.5753 72.2583 3.72541 71.9546 3.04709 71.3987C2.94054 71.7289 2.88146 72.0726 2.87161 72.4194C2.84032 72.712 2.86921 73.008 2.95648 73.289C3.04376 73.5701 3.18759 73.8304 3.37913 74.0538C3.57067 74.2773 3.80588 74.4592 4.07031 74.5884C4.33473 74.7176 4.62279 74.7914 4.91677 74.8052C5.09354 74.8207 5.26903 74.8387 5.45225 74.8387C5.63548 74.8387 5.81096 74.8207 5.98774 74.8052C6.28172 74.7914 6.56977 74.7176 6.8342 74.5884C7.09862 74.4592 7.33383 74.2773 7.52537 74.0538C7.71691 73.8304 7.86074 73.5701 7.94802 73.289C8.0353 73.008 8.06418 72.712 8.0329 72.4194Z" fill="#FF942C"/>
</svg>
