<svg width="61" height="80" viewBox="0 0 61 80" fill="none" xmlns="http://www.w3.org/2000/svg">
<path d="M30.4688 0H19.6559L19.2207 3.06094L27.6771 16.6217L30.4688 18.6278L31.9243 19.6738L39.5023 7.53625L41.2809 0H30.4688Z" fill="#CB9243"/>
<path d="M39.5022 7.53625L41.2808 0H30.4688V18.6278L31.9242 19.6738L39.5022 7.53625Z" fill="#CB9243"/>
<path d="M19.6557 0L11.8957 2.93938C7.61443 4.36594 4.53318 8.12438 3.97318 12.6022L0.0181783 44.2406C-0.0231173 44.5704 0.00613507 44.9052 0.103998 45.2229C0.20186 45.5405 0.366099 45.8338 0.585835 46.0831C0.806079 46.332 1.07667 46.5313 1.3797 46.6678C1.68273 46.8044 2.01129 46.875 2.34365 46.875H9.3749L11.7186 42.1875L13.1518 45.0534L16.9408 43.6722L31.924 19.6739L19.6557 0Z" fill="#FFE566"/>
<path d="M56.9644 12.6052C56.458 8.55361 53.8275 5.18533 50.1714 3.50565L44.2056 8.36362L30.4688 30.3428L17.1911 51.5871L14.0625 61.2803V77.6563C14.0625 78.9507 15.1119 80 16.4063 80H44.5313C45.8256 80 46.875 78.9507 46.875 77.6563V46.875L49.2188 42.1875L51.5625 46.875H58.5938C59.2667 46.875 59.9053 46.5866 60.3516 46.0831C60.5713 45.8338 60.7355 45.5405 60.8334 45.2229C60.9313 44.9053 60.9605 44.5704 60.9192 44.2407L56.9644 12.6052Z" fill="#A2592C"/>
<path d="M46.875 77.6563V46.875L49.2188 42.1875L51.5625 46.875H58.5938C59.2667 46.875 59.9053 46.5866 60.3516 46.0831C60.5713 45.8338 60.7355 45.5405 60.8334 45.2229C60.9313 44.9053 60.9605 44.5705 60.9192 44.2407L56.9644 12.6052C56.458 8.55361 53.8275 5.18533 50.1714 3.50565L44.2056 8.36362L30.4688 30.3428V80H44.5313C45.8256 80 46.875 78.9507 46.875 77.6563Z" fill="#CB9243"/>
<path d="M51.5625 46.875V25.7813C51.5625 24.4869 50.5131 23.4375 49.2188 23.4375C47.9244 23.4375 46.875 24.4869 46.875 25.7813V46.875H51.5625Z" fill="#A2592C"/>
<path d="M49.042 2.94109L41.2803 0L30.4682 17.3175L13.1514 45.0534L14.062 46.875V61.2803L30.4682 35.0302L50.1709 3.50563C49.7864 3.32875 49.4493 3.07703 49.042 2.94109Z" fill="#FFCC33"/>
<path d="M49.0425 2.94109L41.2808 0L30.4688 17.3175V35.0302L50.1714 3.50563C49.7869 3.32875 49.4498 3.07703 49.0425 2.94109Z" fill="#FFE566"/>
<path d="M14.0625 46.875V25.7813C14.0625 24.4869 13.0131 23.4375 11.7188 23.4375C10.4244 23.4375 9.375 24.4869 9.375 25.7813V46.875H14.0625Z" fill="#FFCC33"/>
</svg>
