<svg width="70" height="79" viewBox="0 0 70 79" fill="none" xmlns="http://www.w3.org/2000/svg">
<path d="M62.7422 79C61.464 79 60.4277 77.9637 60.4277 76.6855V11.6108C60.4277 10.3326 61.464 9.29639 62.7422 9.29639C64.0204 9.29639 65.0566 10.3326 65.0566 11.6108V76.6855C65.0566 77.9637 64.0204 79 62.7422 79Z" fill="#90433E"/>
<path d="M51.8457 38.4462L2.51855 38.0249C4.38863 33.0458 7.26936 28.3922 11.0111 24.3944C13.4443 21.7945 15.1586 18.4416 16.251 14.1429C16.4639 13.302 16.6583 12.5073 16.845 11.7389C17.6875 8.28268 18.3525 5.55317 19.6795 3.54885C21.2826 1.12948 23.6418 0.00311279 27.1042 0.00311279C30.5682 0.00311279 32.9258 1.12948 34.529 3.54885C35.8559 5.55317 36.521 8.28268 37.3634 11.7374C37.5501 12.5058 37.7445 13.302 37.959 14.1429C39.0499 18.4416 40.7641 21.7945 43.1974 24.3944C47.0457 28.5048 49.9835 33.3096 51.8457 38.4462Z" fill="#FFBD44"/>
<path d="M51.845 38.4462C49.9827 33.3096 47.0448 28.5048 43.1967 24.3944C40.7634 21.7945 39.0492 18.4416 37.9583 14.1429C37.7438 13.302 37.5494 12.5058 37.3627 11.7374C36.5203 8.28268 35.8552 5.55317 34.5283 3.54885C32.9251 1.12948 30.5675 0.00311279 27.1035 0.00311279V38.2349L51.845 38.4462Z" fill="#FD7E3D"/>
<path d="M54.2076 51.8962C54.2076 64.9559 44.9004 76.1625 32.0799 78.5417C31.9395 78.568 31.7975 78.5818 31.6571 78.5818C31.1201 78.5818 30.5955 78.3951 30.1774 78.0464C29.9162 77.8293 29.706 77.5574 29.5618 77.2499C29.4175 76.9425 29.3427 76.607 29.3426 76.2674V72.3884C29.3426 67.7394 29.912 63.4021 31.0337 59.4938C31.1402 59.1296 31.1927 58.7485 31.1927 58.3628C31.1927 57.2164 30.7313 56.1532 29.8919 55.371C29.0526 54.5887 27.9555 54.2045 26.8045 54.2847C24.7909 54.4251 23.1291 56.1178 23.0211 58.136C22.998 58.5788 23.0427 59.0155 23.1569 59.4336C24.3064 63.6814 24.8649 67.5959 24.8649 71.4009V76.2674C24.8649 76.954 24.5594 77.6067 24.0302 78.0464C23.7693 78.2638 23.4637 78.4209 23.1351 78.5065C22.8065 78.5921 22.463 78.6041 22.1293 78.5417C9.30719 76.1625 0 64.9559 0 51.8962C0 50.9272 0.0524609 49.7947 0.154297 48.5294C0.442832 44.9482 1.24672 41.4117 2.51813 38.0249C6.47121 34.8726 15.155 29.2902 27.0899 29.2902C39.0741 29.2902 47.866 35.1642 51.8453 38.4461C53.0272 41.7049 53.7771 45.0963 54.0533 48.5294C54.1042 49.1621 54.1428 49.7607 54.169 50.3239C54.1952 50.8871 54.2076 51.4117 54.2076 51.8962Z" fill="#FFDE66"/>
<path d="M27.1035 23.2217C25.8253 23.2217 24.7891 22.1854 24.7891 20.9072V11.6108C24.7891 10.3326 25.8253 9.29639 27.1035 9.29639C28.3817 9.29639 29.418 10.3326 29.418 11.6108V20.9072C29.418 22.1854 28.3817 23.2217 27.1035 23.2217Z" fill="#FD7E3D"/>
<path d="M27.1035 9.29639V23.2217C28.3817 23.2217 29.418 22.1854 29.418 20.9072V11.6108C29.418 10.3326 28.3817 9.29639 27.1035 9.29639Z" fill="#F85038"/>
<path d="M54.053 48.5295C53.7768 45.0964 53.0269 41.7049 51.845 38.4462C47.8672 35.1655 39.0807 29.295 27.1035 29.2905V54.2757C28.1442 54.2758 29.1254 54.6569 29.8917 55.371C30.731 56.1533 31.1924 57.2164 31.1924 58.3628C31.1924 58.7486 31.1399 59.1297 31.0335 59.4938C29.9117 63.4022 29.3424 67.7395 29.3424 72.3884V76.2674C29.3424 76.9541 29.6479 77.6067 30.1771 78.0465C30.5925 78.3926 31.1161 78.5821 31.6568 78.5819C31.7972 78.5819 31.9392 78.568 32.0796 78.5418C44.9001 76.1625 54.2073 64.9559 54.2073 51.8963C54.2073 51.4118 54.195 50.8872 54.1687 50.324C54.1427 49.7608 54.1041 49.1621 54.053 48.5295Z" fill="#FFBD44"/>
<path d="M65.0566 76.6855V11.6108C65.0566 10.3326 64.0204 9.29639 62.7422 9.29639V79C64.0204 79 65.0566 77.9637 65.0566 76.6855Z" fill="#73342F"/>
<path d="M62.7419 13.9253C58.9027 13.9253 55.7793 10.8019 55.7793 6.96265C55.7793 3.12343 58.9027 0 62.7419 0C66.5812 0 69.7046 3.12343 69.7046 6.96265C69.7046 10.8019 66.581 13.9253 62.7419 13.9253Z" fill="#FFDE66"/>
<path d="M69.7048 6.96265C69.7048 3.12343 66.5812 0 62.7422 0V13.9253C66.5812 13.9253 69.7048 10.8019 69.7048 6.96265Z" fill="#FFBD44"/>
</svg>
