<svg width="76" height="75" viewBox="0 0 76 75" fill="none" xmlns="http://www.w3.org/2000/svg">
<path d="M58.667 23.5813C62.4429 23.5813 65.5038 20.5203 65.5038 16.7444C65.5038 12.9685 62.4429 9.90756 58.667 9.90756C54.8911 9.90756 51.8301 12.9685 51.8301 16.7444C51.8301 20.5203 54.8911 23.5813 58.667 23.5813Z" fill="#FDC072"/>
<path d="M65.9179 34.0557C69.6938 34.0557 72.7548 30.9947 72.7548 27.2188C72.7548 23.4429 69.6938 20.382 65.9179 20.382C62.142 20.382 59.0811 23.4429 59.0811 27.2188C59.0811 30.9947 62.142 34.0557 65.9179 34.0557Z" fill="#F8AD3E"/>
<path d="M68.3359 46.1417C72.1118 46.1417 75.1728 43.0807 75.1728 39.3048C75.1728 35.5289 72.1118 32.468 68.3359 32.468C64.56 32.468 61.499 35.5289 61.499 39.3048C61.499 43.0807 64.56 46.1417 68.3359 46.1417Z" fill="#FDC072"/>
<path d="M67.2295 57.4222C71.0054 57.4222 74.0663 54.3613 74.0663 50.5854C74.0663 46.8094 71.0054 43.7485 67.2295 43.7485C63.4536 43.7485 60.3926 46.8094 60.3926 50.5854C60.3926 54.3613 63.4536 57.4222 67.2295 57.4222Z" fill="#F8AD3E"/>
<path d="M60.6123 68.5503C64.3882 68.5503 67.4491 65.4894 67.4491 61.7135C67.4491 57.9376 64.3882 54.8766 60.6123 54.8766C56.8364 54.8766 53.7754 57.9376 53.7754 61.7135C53.7754 65.4894 56.8364 68.5503 60.6123 68.5503Z" fill="#FDC072"/>
<path d="M50.1377 72.579C53.9136 72.579 56.9745 69.5181 56.9745 65.7422C56.9745 61.9662 53.9136 58.9053 50.1377 58.9053C46.3618 58.9053 43.3008 61.9662 43.3008 65.7422C43.3008 69.5181 46.3618 72.579 50.1377 72.579Z" fill="#F8AD3E"/>
<path d="M42.8734 70.0101C42.7368 70.1775 42.5917 70.3377 42.4388 70.4903C42.43 70.4991 42.4226 70.5064 42.4138 70.5137C32.7809 66.9166 37.4953 58.8209 37.4953 58.8209C39.2806 58.7915 41.0748 59.4596 42.4388 60.8221C44.9538 63.3371 45.0992 67.3248 42.8734 70.0101Z" fill="#FDC072"/>
<path d="M42.4133 70.5136C39.7397 73.1593 35.429 73.1505 32.7686 70.4901C30.098 67.8209 30.098 63.4911 32.7686 60.8219C33.4422 60.1457 34.2506 59.6189 35.1413 59.2759C35.8927 58.9863 36.6896 58.8322 37.4948 58.8208C37.2875 62.1709 37.4533 67.0212 42.4133 70.5136Z" fill="#F8AD3E"/>
<path d="M26.1533 68.464C29.9292 68.464 32.9902 65.403 32.9902 61.6271C32.9902 57.8512 29.9292 54.7902 26.1533 54.7902C22.3774 54.7902 19.3164 57.8512 19.3164 61.6271C19.3164 65.403 22.3774 68.464 26.1533 68.464Z" fill="#ED8D00"/>
<path d="M13.2617 55.5722C17.0376 55.5722 20.0986 52.5112 20.0986 48.7353C20.0986 44.9594 17.0376 41.8984 13.2617 41.8984C9.48578 41.8984 6.4248 44.9594 6.4248 48.7353C6.4248 52.5112 9.48578 55.5722 13.2617 55.5722Z" fill="#ED8D00"/>
<path d="M47.9082 16.091C51.6841 16.091 54.745 13.03 54.745 9.25411C54.745 5.47821 51.6841 2.41724 47.9082 2.41724C44.1323 2.41724 41.0713 5.47821 41.0713 9.25411C41.0713 13.03 44.1323 16.091 47.9082 16.091Z" fill="#F8AD3E"/>
<path d="M35.8222 13.6738C39.5981 13.6738 42.6591 10.6128 42.6591 6.83688C42.6591 3.06097 39.5981 0 35.8222 0C32.0463 0 28.9854 3.06097 28.9854 6.83688C28.9854 10.6128 32.0463 13.6738 35.8222 13.6738Z" fill="#FDC072"/>
<path d="M29.3763 14.8949C28.7527 15.5204 28.0131 16.0181 27.1989 16.3602C26.6104 16.6094 25.9895 16.774 25.3548 16.8491C23.3448 17.0884 21.2497 16.4366 19.7081 14.8949C17.0374 12.2243 17.0374 7.89597 19.7081 5.22529C21.3202 3.61319 23.5372 2.97305 25.6294 3.30927C26.0361 3.37534 26.4384 3.47665 26.8304 3.61613C27.7891 3.95458 28.6592 4.50457 29.3763 5.22529C32.0455 7.89597 32.0455 12.2243 29.3763 14.8949Z" fill="#F8AD3E"/>
<path d="M27.1989 16.3602C26.6104 16.6094 25.9895 16.774 25.3548 16.8491C23.3449 17.0884 21.2497 16.4366 19.7081 14.8949C17.0374 12.2243 17.0374 7.89597 19.7081 5.22529C21.3202 3.61319 23.5372 2.97305 25.6294 3.30927C24.3697 6.32938 23.3591 10.3934 27.1989 16.3602Z" fill="#ED8D00"/>
<path d="M14.0673 22.5369C17.8432 22.5369 20.9042 19.4759 20.9042 15.7C20.9042 11.9241 17.8432 8.86313 14.0673 8.86313C10.2914 8.86313 7.23047 11.9241 7.23047 15.7C7.23047 19.4759 10.2914 22.5369 14.0673 22.5369Z" fill="#F8AD3E"/>
<path d="M6.83688 32.2056C10.6128 32.2056 13.6738 29.1447 13.6738 25.3688C13.6738 21.5929 10.6128 18.5319 6.83688 18.5319C3.06097 18.5319 0 21.5929 0 25.3688C0 29.1447 3.06097 32.2056 6.83688 32.2056Z" fill="#ED8D00"/>
<path d="M11.6349 64.3583C11.4101 64.3583 11.1904 64.2915 11.0036 64.1665C10.8169 64.0414 10.6714 63.8637 10.5857 63.656C10.5 63.4482 10.478 63.2196 10.5223 62.9992C10.5667 62.7789 10.6755 62.5767 10.8349 62.4182L15.6845 57.5989C15.898 57.3868 16.1871 57.2681 16.4881 57.269C16.7891 57.27 17.0775 57.3905 17.2896 57.604C17.5018 57.8175 17.6205 58.1066 17.6195 58.4076C17.6186 58.7086 17.4981 58.997 17.2846 59.2091L12.4349 64.0284C12.2225 64.24 11.9347 64.3586 11.6349 64.3583Z" fill="#97AABB"/>
<path d="M9.23239 44.0918C13.0083 44.0918 16.0693 41.0309 16.0693 37.255C16.0693 33.4791 13.0083 30.4181 9.23239 30.4181C5.45648 30.4181 2.39551 33.4791 2.39551 37.255C2.39551 41.0309 5.45648 44.0918 9.23239 44.0918Z" fill="#F8AD3E"/>
<path d="M14.8724 60.0156C13.5373 58.6805 13.5373 56.5161 14.8724 55.1812L18.901 51.1526C20.2361 49.8175 22.4005 49.8175 23.7354 51.1526C25.0704 52.4876 25.0704 54.652 23.7354 55.9869L19.7068 60.0156C18.3717 61.3506 16.2074 61.3506 14.8724 60.0156Z" fill="#C2EAFB"/>
<path d="M6.81544 74.858C10.5795 74.858 13.6309 71.8066 13.6309 68.0426C13.6309 64.2785 10.5795 61.2271 6.81544 61.2271C3.05138 61.2271 0 64.2785 0 68.0426C0 71.8066 3.05138 74.858 6.81544 74.858Z" fill="#91D4F2"/>
</svg>
