<svg width="80" height="80" viewBox="0 0 80 80" fill="none" xmlns="http://www.w3.org/2000/svg">
<path d="M68.832 59.8655L68.8321 59.8653C72.5046 61.0506 77.6298 63.4811 79.9197 68.1743C80.1051 68.5543 79.9642 69.0113 79.5937 69.2151C77.9431 70.1227 72.9996 72.1982 64.6729 70.3788L61.1861 67.0893L59.5088 63.0069L63.1105 61.1186L68.832 59.8655Z" fill="#FF99C2"/>
<path d="M64.6893 58.8527C64.6897 58.8527 66.4575 59.0991 68.8319 59.8655C65.5942 61.7863 62.1448 62.6363 59.5085 63.0069L55.7087 61.6615L55.0684 60.3511C55.0696 60.3511 64.6893 58.8527 64.6893 58.8527Z" fill="#FBCDDD"/>
<path d="M55.0677 60.3509C55.0677 60.3509 56.5741 60.8992 58.4378 62.1997L53.9381 64.9111L49.7503 64.037L46.6592 60.3509H55.0677Z" fill="#F7BFE2"/>
<path d="M49.7509 64.037C53.0485 63.7783 55.9528 63.2489 58.4381 62.1998C61.6272 64.4248 65.8634 68.8527 65.3945 76.5116C65.3672 76.9572 64.9817 77.2955 64.5373 77.253C61.7325 76.9846 52.3038 75.6154 49.7866 69.226L48.7285 66.5766L49.7509 64.037Z" fill="#FF99C2"/>
<path d="M11.1691 59.8655L11.169 59.8653C7.49645 61.0506 2.37127 63.4811 0.0814152 68.1743C-0.104055 68.5543 0.0368837 69.0113 0.407354 69.2151C2.05799 70.1227 7.00145 72.1982 15.3282 70.3788L18.8149 67.0893L20.4923 63.0069L16.8906 61.1186L11.1691 59.8655Z" fill="#FF99C2"/>
<path d="M15.3115 58.8527C15.3112 58.8527 13.5433 59.0991 11.1689 59.8655C14.4066 61.7863 17.856 62.6363 20.4923 63.0069L24.2921 61.6615L24.9325 60.3511C24.9314 60.3511 15.3115 58.8527 15.3115 58.8527Z" fill="#FBCDDD"/>
<path d="M40.0005 18.3549C39.678 18.3549 39.3686 18.2268 39.1405 17.9987C38.9125 17.7707 38.7843 17.4614 38.7843 17.1388V11.3419C38.7824 11.181 38.8125 11.0214 38.8728 10.8723C38.9331 10.7231 39.0224 10.5874 39.1356 10.473C39.2487 10.3586 39.3834 10.2678 39.5318 10.2058C39.6803 10.1438 39.8396 10.1119 40.0004 10.1119C40.1613 10.1119 40.3206 10.1438 40.4691 10.2058C40.6175 10.2678 40.7522 10.3586 40.8653 10.473C40.9784 10.5874 41.0677 10.7231 41.128 10.8723C41.1883 11.0214 41.2184 11.181 41.2166 11.3419V17.1388C41.2166 17.2985 41.1852 17.4567 41.1241 17.6042C41.063 17.7518 40.9734 17.8859 40.8605 17.9988C40.7475 18.1117 40.6135 18.2013 40.4659 18.2624C40.3184 18.3235 40.1602 18.3549 40.0005 18.3549Z" fill="#DFAA88"/>
<path d="M34.8809 5.96191C34.8809 9.25708 37.5502 11.2888 40.0006 11.2888C42.4509 11.2888 45.1203 9.18427 45.1203 5.96191C44.1928 2.0636 40.0006 0 40.0006 0C40.0006 0 35.8084 2.0636 34.8809 5.96191Z" fill="#F7CF77"/>
<path d="M40.0001 9.88256C37.5498 9.88256 35.4887 8.22005 34.8804 5.96191C34.7594 6.46516 34.6979 6.98089 34.6973 7.49848C34.6973 10.4271 37.0715 12.8013 40.0001 12.8013C42.9287 12.8013 45.3029 10.4271 45.3029 7.49848C45.3023 6.98089 45.2408 6.46516 45.1198 5.96191C44.5115 8.22005 42.4504 9.88256 40.0001 9.88256Z" fill="#F4C260"/>
<path d="M46.1769 30.226V17.605C46.1769 16.5415 45.3149 15.6795 44.2514 15.6795H35.7487C34.6853 15.6795 33.8232 16.5415 33.8232 17.605V30.226H46.1769Z" fill="#EEEFF4"/>
<path d="M46.1771 33.2531V30.2259C43.6563 28.0317 41.2644 26.6629 40.3702 26.1845C40.2564 26.1235 40.1293 26.0916 40.0001 26.0916C39.871 26.0916 39.7439 26.1235 39.6301 26.1845C38.7359 26.6629 36.344 28.0317 33.8232 30.2259V33.2531H46.1771Z" fill="#E5E6EA"/>
<path d="M24.9327 60.3509C24.9327 60.3509 23.4263 60.8992 21.5625 62.1997L26.0622 64.9111L30.25 64.037L33.3412 60.3509H24.9327Z" fill="#F7BFE2"/>
<path d="M30.2506 64.037C26.953 63.7783 24.0487 63.2489 21.5634 62.1999C18.3743 64.4249 14.1381 68.8527 14.607 76.5116C14.6343 76.9573 15.0198 77.2956 15.4642 77.2531C18.269 76.9846 27.6977 75.6154 30.2149 69.226L31.2732 66.5766L30.2506 64.037ZM3.06457 42.4513C3.06457 45.3907 4.05692 48.3799 5.6913 50.5592C8.91085 54.8518 13.4376 56.7231 17.2801 56.5294L14.2312 39.135L8.04288 32.2855C7.69834 31.9041 7.08522 31.9499 6.80396 32.3802C5.72974 34.0236 3.48832 37.928 3.06348 42.4518C3.06385 42.4517 3.06422 42.4515 3.06457 42.4513Z" fill="#FF99C2"/>
<path d="M5.69038 49.1529C4.056 46.9737 3.28631 44.6818 3.06365 42.4513C2.77302 45.5437 3.33037 48.9249 5.69038 52.0717C12.4473 61.0808 24.9308 60.3511 24.9325 60.3509L22.9216 57.975L17.2793 56.5293C13.4292 55.5264 8.90993 53.4456 5.69038 49.1529Z" fill="#F7BFE2"/>
<path d="M12.6953 44.5727C12.6953 45.9816 13.0912 48.2254 13.5503 49.3571C16.5644 56.7871 22.4933 58.7678 30.3526 58.2073L28.2135 39.8853L20.7434 31.34C20.4395 30.9923 19.9033 30.9794 19.5848 31.3136C17.9203 33.0595 13.3492 38.3647 12.6943 44.5729L12.6953 44.5727Z" fill="#FF99C2"/>
<path d="M13.55 47.9509C13.1106 46.8697 12.8228 45.7328 12.695 44.5728C12.4805 46.606 12.6844 48.7359 13.55 50.8697C17.5258 60.6706 26.2173 61.3874 38.7736 61.3496L30.3524 58.2074C22.2888 57.5897 16.5639 55.3809 13.55 47.9509Z" fill="#FBCDDD"/>
<path d="M49.7635 64.0769C49.4671 63.0519 49.002 62.0834 48.3977 61.2076L40 59.8014L31.6023 61.2076C30.9979 62.0834 30.5329 63.0517 30.2363 64.0769L40 65.5369L49.7635 64.0769Z" fill="#FBCDDD"/>
<path d="M49.7639 64.0769C45.2514 64.1486 34.7495 64.1486 30.237 64.0769C29.674 66.0234 29.7193 68.1747 30.5756 70.2868C32.9653 76.1812 38.2323 79.1935 39.6456 79.9149C39.869 80.029 40.132 80.029 40.3553 79.9149C41.7687 79.1935 47.0356 76.1812 49.4253 70.2868C50.2816 68.1747 50.3269 66.0234 49.7639 64.0769Z" fill="#FF91AE"/>
<path d="M76.9362 42.4513C76.9362 45.3907 75.9439 48.3799 74.3095 50.5592C71.09 54.8518 66.5632 56.7231 62.7207 56.5294L65.7695 39.135L71.9578 32.2855C72.3023 31.9041 72.9154 31.9499 73.1967 32.3802C74.2709 34.0236 76.5123 37.928 76.9372 42.4518L76.9362 42.4513Z" fill="#FF99C2"/>
<path d="M74.3095 49.1529C75.9439 46.9737 76.7136 44.6818 76.9362 42.4513C77.2269 45.5437 76.6695 48.9249 74.3095 52.0717C67.5528 61.0808 55.0691 60.3511 55.0674 60.3509L57.0783 57.975L62.7205 56.5293C66.5709 55.5264 71.09 53.4456 74.3095 49.1529Z" fill="#F7BFE2"/>
<path d="M67.3057 44.5727C67.3057 45.9816 66.9098 48.2254 66.4507 49.3571C63.4366 56.7871 57.5077 58.7678 49.6484 58.2073L51.7875 39.8853L59.2575 31.34C59.5615 30.9923 60.0977 30.9794 60.4161 31.3136C62.0807 33.0595 66.6518 38.3647 67.3067 44.5729L67.3057 44.5727Z" fill="#FF99C2"/>
<path d="M66.4511 47.9509C66.8906 46.8697 67.1783 45.7328 67.3061 44.5728C67.5206 46.606 67.3167 48.7359 66.4511 50.8697C62.4753 60.6706 53.7839 61.3874 41.2275 61.3496L49.6487 58.2074C57.7123 57.5897 63.4372 55.3809 66.4511 47.9509Z" fill="#FBCDDD"/>
<path d="M26.2757 46.3163C26.2757 56.2893 33.0143 59.8015 40 59.8015C46.9857 59.8015 53.7243 56.0771 53.7243 46.3163H53.7246C52.8646 36.1752 42.4738 30.1226 40.37 28.997C40.2562 28.936 40.1291 28.9041 40 28.9041C39.8709 28.9041 39.7438 28.936 39.63 28.997C37.5261 30.1225 27.1352 36.1752 26.2754 46.3163H26.2757Z" fill="#FF91AE"/>
<path d="M40.0008 58.4686C33.0152 58.4686 26.9287 54.9478 26.2765 46.3162C26.2386 46.7542 26.219 47.1937 26.2178 47.6334C26.2033 57.4343 32.5977 61.3873 40.0008 61.3873C47.404 61.3873 53.7984 57.4343 53.7839 47.6334C53.7826 47.1937 53.763 46.7542 53.7251 46.3162C53.0729 54.9479 46.9865 58.4686 40.0008 58.4686Z" fill="#FFC1D6"/>
</svg>
