<svg width="63" height="77" viewBox="0 0 63 77" fill="none" xmlns="http://www.w3.org/2000/svg">
<path d="M26.1016 20.0114H36.5422V27.4068H26.1016V20.0114Z" fill="#F0915A"/>
<path d="M33.932 24.7966H28.7116C25.8285 24.7966 23.4913 22.4594 23.4913 19.5763V11.7458C23.4913 7.42107 26.9971 3.91528 31.3218 3.91528C35.6465 3.91528 39.1523 7.42107 39.1523 11.7458V19.5763C39.1523 22.4594 36.8151 24.7966 33.932 24.7966ZM46.9828 61.339H15.6608C12.7777 61.339 10.4404 59.0018 10.4404 56.1187V38.6632C10.4404 32.4464 15.48 27.4068 21.6968 27.4068H41.7625C47.5287 27.4068 52.2031 32.0813 52.2031 37.8475V56.1187C52.2031 59.0018 49.8659 61.339 46.9828 61.339Z" fill="#FAB991"/>
<path d="M54.8136 76.9999H7.83051C3.50578 76.9999 0 73.4942 0 69.1694C0 64.8447 3.50578 61.3389 7.83051 61.3389H54.8136C59.1383 61.3389 62.6441 64.8447 62.6441 69.1694C62.6441 73.4942 59.1383 76.9999 54.8136 76.9999Z" fill="#F06423"/>
<path d="M31.3215 7.83051C33.4838 7.83051 35.2368 6.07759 35.2368 3.91525C35.2368 1.75292 33.4838 0 31.3215 0C29.1592 0 27.4062 1.75292 27.4062 3.91525C27.4062 6.07759 29.1592 7.83051 31.3215 7.83051Z" fill="#463C4B"/>
<path d="M20.8809 13.0509V15.661C20.8809 16.0072 21.0184 16.3391 21.2631 16.5839C21.5079 16.8286 21.8398 16.9661 22.1859 16.9661V20.2288C22.1859 20.4019 22.2547 20.5679 22.3771 20.6903C22.4994 20.8126 22.6654 20.8814 22.8385 20.8814C23.0116 20.8814 23.1775 20.8126 23.2999 20.6903C23.4223 20.5679 23.491 20.4019 23.491 20.2288V11.7458H22.1859C21.8398 11.7458 21.5079 11.8833 21.2631 12.128C21.0184 12.3728 20.8809 12.7047 20.8809 13.0509ZM41.7622 13.0509V15.661C41.7622 16.0072 41.6247 16.3391 41.38 16.5839C41.1352 16.8286 40.8033 16.9661 40.4571 16.9661V20.2288C40.4571 20.4019 40.3884 20.5679 40.266 20.6903C40.1436 20.8126 39.9777 20.8814 39.8046 20.8814C39.6315 20.8814 39.4655 20.8126 39.3432 20.6903C39.2208 20.5679 39.152 20.4019 39.152 20.2288V11.7458H40.4571C40.8033 11.7458 41.1352 11.8833 41.38 12.128C41.6247 12.3728 41.7622 12.7047 41.7622 13.0509Z" fill="#F0915A"/>
<path d="M23.4916 14.356V11.7458C23.4916 10.3042 24.6601 9.13562 26.1018 9.13562H36.5425C37.9841 9.13562 39.1526 10.3042 39.1526 11.7458V14.356C39.4988 14.356 39.8307 14.2185 40.0755 13.9737C40.3202 13.729 40.4577 13.397 40.4577 13.0509V9.13562C40.4577 6.25253 38.1205 3.91528 35.2374 3.91528H27.4069C24.5238 3.91528 22.1865 6.25253 22.1865 9.13562V13.0509C22.1865 13.397 22.324 13.729 22.5688 13.9737C22.8135 14.2185 23.1455 14.356 23.4916 14.356Z" fill="#555A6E"/>
<path d="M28.2771 15.226H27.842C26.881 15.226 26.1018 14.4468 26.1018 13.4858H30.0171C30.0172 14.447 29.2381 15.226 28.2771 15.226ZM34.8025 11.7458H33.0623C32.1015 11.7458 31.3223 12.5249 31.3223 13.486V19.5763L32.6274 18.2712V13.486C32.6274 14.447 33.4066 15.2261 34.3676 15.2261H34.8027C35.7637 15.2261 36.5428 14.447 36.5428 13.486C36.5427 12.5249 35.7635 11.7458 34.8025 11.7458ZM18.2715 53.5085H20.8817V41.7627C20.8817 41.4166 20.7442 41.0847 20.4994 40.8399C20.2547 40.5951 19.9227 40.4577 19.5766 40.4577C19.2304 40.4577 18.8985 40.5951 18.6537 40.8399C18.409 41.0847 18.2715 41.4166 18.2715 41.7627V53.5085Z" fill="#F0915A"/>
<path d="M46.983 61.3389H41.7627V27.4067C47.5289 27.4067 52.2034 32.0812 52.2034 37.8474V56.1186C52.2034 59.0017 49.8661 61.3389 46.983 61.3389Z" fill="#F06423"/>
<path d="M41.7627 53.5084H44.3729V41.7626C44.3729 41.4165 44.2354 41.0846 43.9906 40.8398C43.7459 40.595 43.4139 40.4576 43.0678 40.4576C42.7217 40.4576 42.3897 40.595 42.1449 40.8398C41.9002 41.0846 41.7627 41.4165 41.7627 41.7626V53.5084Z" fill="#D24605"/>
<path d="M36.5419 27.4067V30.0169C36.5419 38.6662 29.5301 45.6779 20.8809 45.6779V53.5084H41.7622V27.4067H36.5419Z" fill="#F06423"/>
<path d="M35.2372 56.1186H32.627V53.5084H30.0168V56.1186H27.4066C27.0605 56.1186 26.7286 56.2561 26.4838 56.5008C26.2391 56.7456 26.1016 57.0775 26.1016 57.4236C26.1016 57.7698 26.2391 58.1017 26.4838 58.3465C26.7286 58.5912 27.0605 58.7287 27.4066 58.7287H35.2372C35.5833 58.7287 35.9152 58.5912 36.16 58.3465C36.4047 58.1017 36.5422 57.7698 36.5422 57.4236C36.5422 57.0775 36.4047 56.7456 36.16 56.5008C35.9152 56.2561 35.5833 56.1186 35.2372 56.1186Z" fill="#F0915A"/>
<path d="M36.5419 27.4067V30.0169C36.5419 38.6662 29.5301 45.6779 20.8809 45.6779V48.2881C30.9718 48.2881 39.152 40.1078 39.152 30.0169V27.4067H36.5419ZM36.5419 61.3389H39.152V76.9999H36.5419V61.3389Z" fill="#FAA019"/>
<path d="M49.593 69.1694H39.1523V61.3389H49.593C51.0347 61.3389 52.2032 62.5075 52.2032 63.9491V66.5593C52.2032 68.0009 51.0347 69.1694 49.593 69.1694Z" fill="#FAB991"/>
<path d="M39.1523 53.5084H41.7625V61.3389H39.1523V53.5084Z" fill="#F06423"/>
</svg>
