<svg width="21" height="22" viewBox="0 0 21 22" fill="none" xmlns="http://www.w3.org/2000/svg">
<path d="M12.3404 11.2112C12.3404 12.2059 11.534 13.0123 10.5393 13.0123C9.54467 13.0123 8.73828 12.2059 8.73828 11.2112C8.73828 10.2165 9.54467 9.41016 10.5393 9.41016C11.534 9.41016 12.3404 10.2165 12.3404 11.2112Z" fill="#A96D2B"/>
<path d="M13.5806 5.76758H7.4971C6.17289 5.76758 5.0957 6.84476 5.0957 8.16897V14.2525C5.0957 15.5767 6.17289 16.6539 7.4971 16.6539H13.5806C14.9048 16.6539 15.982 15.5767 15.982 14.2525V8.16897C15.982 6.84476 14.9048 5.76758 13.5806 5.76758ZM10.5389 14.2125C8.88371 14.2125 7.53712 12.8659 7.53712 11.2107C7.53712 9.55558 8.88371 8.209 10.5389 8.209C12.194 8.209 13.5406 9.55558 13.5406 11.2107C13.5406 12.8659 12.194 14.2125 10.5389 14.2125ZM13.9809 8.36909C13.6493 8.36909 13.3805 8.10033 13.3805 7.76874C13.3805 7.43715 13.6493 7.16839 13.9809 7.16839C14.3125 7.16839 14.5812 7.43715 14.5812 7.76874C14.5812 8.10033 14.3125 8.36909 13.9809 8.36909Z" fill="#A96D2B"/>
<path d="M15.3817 0.96582H5.69611C2.71686 0.96582 0.292969 3.38975 0.292969 6.36896V16.0546C0.292969 19.0338 2.7169 21.4577 5.69611 21.4577H15.3817C18.361 21.4577 20.7849 19.0338 20.7849 16.0546V6.36896C20.7849 3.38971 18.361 0.96582 15.3817 0.96582ZM17.1828 14.2535C17.1828 16.2397 15.5668 17.8556 13.5807 17.8556H7.49716C5.511 17.8556 3.89506 16.2397 3.89506 14.2535V8.17001C3.89506 6.18385 5.511 4.56791 7.49716 4.56791H13.5807C15.5668 4.56791 17.1828 6.18385 17.1828 8.17001V14.2535Z" fill="#A96D2B"/>
</svg>
