<svg width="19" height="20" viewBox="0 0 19 20" fill="none" xmlns="http://www.w3.org/2000/svg">
<path d="M18.9133 19.4138V12.5877C18.9133 9.23284 18.1911 6.67013 14.2771 6.67013C12.39 6.67013 11.132 7.69521 10.6194 8.6737H10.5729V6.97299H6.86856V19.4138H10.7359V13.24C10.7359 11.6092 11.0388 10.0483 13.0424 10.0483C15.0227 10.0483 15.046 11.8887 15.046 13.3332V19.3905H18.9133V19.4138ZM0.578257 6.97299H4.44563V19.4138H0.578257V6.97299ZM2.51194 0.775879C1.27718 0.775879 0.275391 1.77767 0.275391 3.01243C0.275391 4.24719 1.27718 5.27228 2.51194 5.27228C3.74671 5.27228 4.7485 4.24719 4.7485 3.01243C4.7485 1.77767 3.74671 0.775879 2.51194 0.775879Z" fill="#A96D2B"/>
</svg>
