<svg width="13" height="13" viewBox="0 0 13 13" fill="none" xmlns="http://www.w3.org/2000/svg">
<g opacity="0.65">
<path d="M11.8408 8.45018C11.0526 8.45018 10.2787 8.32691 9.54536 8.08455C9.186 7.96198 8.74423 8.07442 8.52491 8.29968L7.07738 9.39241C5.39865 8.49631 4.36459 7.46258 3.48072 5.79646L4.5413 4.38665C4.81685 4.11147 4.91568 3.7095 4.79727 3.33234C4.55387 2.59511 4.43023 1.82158 4.43023 1.03306C4.43027 0.463424 3.96684 0 3.39724 0H1.03302C0.463424 0 0 0.463424 0 1.03302C0 7.56212 5.31172 12.8738 11.8408 12.8738C12.4104 12.8738 12.8738 12.4104 12.8738 11.8408V9.48317C12.8738 8.9136 12.4104 8.45018 11.8408 8.45018Z" fill="white"/>
</g>
</svg>
