<svg width="312" height="18" viewBox="0 0 312 18" fill="none" xmlns="http://www.w3.org/2000/svg">
<path fill-rule="evenodd" clip-rule="evenodd" d="M156.248 16.7143C158.559 17.4936 166.5 20.1724 166.5 13.7046C166.5 6.13575 155.625 0 155.625 0C155.625 0 144.75 6.13575 144.75 13.7046C144.75 21.2734 155.625 16.5359 155.625 16.5359C155.625 16.504 155.855 16.5816 156.248 16.7143ZM100.5 11.25L0 12.75L100.5 14.25V11.25ZM210.75 11.25L311.25 12.75L210.75 14.25V11.25ZM195 13.9943C195 17.7673 190.345 16.2046 188.99 15.75C188.76 15.6726 188.625 15.6273 188.625 15.6459C188.625 15.6459 182.25 18.4095 182.25 13.9943C182.25 9.57918 188.625 6 188.625 6C188.625 6 195 9.57918 195 13.9943ZM122.99 15.75C124.345 16.2046 129 17.7673 129 13.9943C129 9.57918 122.625 6 122.625 6C122.625 6 116.25 9.57918 116.25 13.9943C116.25 18.4095 122.625 15.6459 122.625 15.6459C122.625 15.6273 122.76 15.6726 122.99 15.75Z" fill="url(#paint0_radial_331_4768)"/>
<defs>
<radialGradient id="paint0_radial_331_4768" cx="0" cy="0" r="1" gradientUnits="userSpaceOnUse" gradientTransform="translate(155.625 8.99999) scale(155.625 155.625)">
<stop stop-color="#A96D2B"/>
<stop offset="0.5" stop-color="#7F5220" stop-opacity="0.4"/>
<stop offset="1" stop-color="#432B11" stop-opacity="0"/>
</radialGradient>
</defs>
</svg>
