<svg width="172" height="10" viewBox="0 0 172 10" fill="none" xmlns="http://www.w3.org/2000/svg">
<path fill-rule="evenodd" clip-rule="evenodd" d="M86.3444 9.23647C87.6211 9.66714 92.0096 11.1475 92.0096 7.57329C92.0096 3.39068 86 0 86 0C86 0 79.9903 3.39068 79.9903 7.57329C79.9903 11.7559 86 9.1379 86 9.1379C86 9.12027 86.1271 9.16316 86.3444 9.23647ZM55.5373 6.21686L0 7.04578L55.5373 7.87469V6.21686ZM116.463 6.21686L172 7.04578L116.463 7.87469V6.21686ZM107.759 7.73332C107.759 9.81828 105.186 8.95473 104.438 8.70351C104.311 8.66074 104.236 8.63572 104.236 8.64601C104.236 8.64601 100.713 10.1732 100.713 7.73332C100.713 5.29346 104.236 3.31557 104.236 3.31557C104.236 3.31557 107.759 5.29346 107.759 7.73332ZM67.9659 8.70351C68.7143 8.95473 71.2868 9.81828 71.2868 7.73332C71.2868 5.29346 67.7639 3.31557 67.7639 3.31557C67.7639 3.31557 64.241 5.29346 64.241 7.73332C64.241 10.1732 67.7639 8.64601 67.7639 8.64601C67.7639 8.63572 67.8385 8.66074 67.9659 8.70351Z" fill="url(#paint0_radial_331_4943)"/>
<defs>
<radialGradient id="paint0_radial_331_4943" cx="0" cy="0" r="1" gradientUnits="userSpaceOnUse" gradientTransform="translate(86.0001 4.97349) scale(86.0001 86.0001)">
<stop stop-color="#FFBC00"/>
<stop offset="0.5" stop-color="#FFC469"/>
<stop offset="1" stop-color="#FFD89C"/>
</radialGradient>
</defs>
</svg>
