<svg width="25" height="15" viewBox="0 0 25 15" fill="none" xmlns="http://www.w3.org/2000/svg">
<path d="M23.7281 2.49848C23.452 1.60245 22.6426 0.896126 21.6161 0.654853C19.741 0.207031 12.24 0.207031 12.24 0.207031C12.24 0.207031 4.73944 0.207031 2.86425 0.637875C1.85755 0.878892 1.0284 1.60258 0.752268 2.49848C0.258789 4.13505 0.258789 7.52908 0.258789 7.52908C0.258789 7.52908 0.258789 10.9402 0.752268 12.5597C1.0287 13.4556 1.8378 14.1619 2.8644 14.4032C4.75918 14.8511 12.2403 14.8511 12.2403 14.8511C12.2403 14.8511 19.741 14.8511 21.6161 14.4203C22.6427 14.1791 23.452 13.4728 23.7284 12.5769C24.2217 10.9402 24.2217 7.54631 24.2217 7.54631C24.2217 7.54631 24.2415 4.13505 23.7281 2.49848ZM9.85193 10.6646V4.39356L16.0893 7.52908L9.85193 10.6646Z" fill="#A96D2B"/>
</svg>
