<svg width="23" height="14" viewBox="0 0 23 14" fill="none" xmlns="http://www.w3.org/2000/svg">
<path d="M21.6365 2.21256C21.3892 1.40772 20.6643 0.773266 19.745 0.556547C18.0656 0.154297 11.3477 0.154297 11.3477 0.154297C11.3477 0.154297 4.6301 0.154297 2.95066 0.541296C2.04905 0.757786 1.30646 1.40783 1.05915 2.21256C0.617188 3.68258 0.617188 6.73122 0.617188 6.73122C0.617188 6.73122 0.617188 9.79522 1.05915 11.2499C1.30672 12.0546 2.03137 12.6891 2.95079 12.9058C4.64778 13.3081 11.348 13.3081 11.348 13.3081C11.348 13.3081 18.0656 13.3081 19.745 12.9211C20.6645 12.7045 21.3892 12.0701 21.6368 11.2654C22.0786 9.79522 22.0786 6.7467 22.0786 6.7467C22.0786 6.7467 22.0963 3.68258 21.6365 2.21256ZM9.20889 9.54766V3.91478L14.7951 6.73122L9.20889 9.54766Z" fill="#E14143"/>
</svg>
